<svg width="252" height="144" viewBox="0 0 252 144" fill="none" xmlns="http://www.w3.org/2000/svg">
<g clip-path="url(#clip0_917_3080)">
<path opacity="0.1" d="M151.768 103.789C156.645 103.511 162.696 100.203 167.401 98.7403C172.97 97.0131 178.56 95.3513 184.173 93.7551C203.712 88.1953 223.461 83.458 243.42 79.5431C245.282 79.1767 247.148 78.8192 249.016 78.4706C246.106 72.1815 241.597 66.7659 235.939 62.7645C236.084 61.3878 236.157 60.0045 236.159 58.6201C236.159 36.7416 218.675 19.0053 197.098 19.0053C190.456 18.9983 183.925 20.7128 178.142 23.9817C162.871 13.9363 142.938 7.85645 121.131 7.85645C90.1423 7.85645 62.9387 20.133 47.524 38.6196L119.97 50.8587L164.402 58.3619C113.749 59.8736 62.9387 61.3765 12.431 57.8279C5.76378 64.279 1.54386 72.8455 0.492489 82.0631C-0.558884 91.2807 1.62355 100.577 6.66681 108.364C6.66681 109.157 6.69991 109.942 6.75949 110.721C8.04607 111.09 9.28852 111.447 10.403 111.681C28.2945 115.461 46.3007 118.624 64.4217 121.17C51.0682 129.404 34.8061 130.569 19.4024 134.056C26.8615 140.213 36.9908 143.987 48.153 143.987H214.354C232.35 143.987 246.937 131.459 246.937 116.002C249.638 111.549 251.438 106.608 252.234 101.461C218.933 104.677 185.217 101.885 151.768 103.789Z" fill="#6C63FF"/>
<path opacity="0.1" d="M252.461 94.8777C252.479 88.5075 250.965 82.2264 248.046 76.5643C245.127 70.9022 240.889 66.0252 235.689 62.3446C235.833 60.9685 235.907 59.586 235.91 58.2024C235.91 36.3239 218.416 18.5942 196.849 18.5942C190.206 18.5871 183.674 20.3009 177.89 23.5684C162.619 13.5185 142.685 7.43652 120.877 7.43652C85.4042 7.43652 54.8705 23.5353 41.3294 46.621C40.5769 46.5768 39.82 46.5526 39.0564 46.5526C17.4869 46.5526 -0.00444033 64.2889 -0.00444033 86.1674C-0.0195588 93.8953 2.21321 101.461 6.42184 107.942C6.42184 127.627 25.0011 143.585 47.9102 143.585H214.115C232.11 143.585 246.697 131.054 246.697 115.598C250.482 109.35 252.476 102.182 252.461 94.8777Z" fill="#6C63FF"/>
<path d="M206.18 70.6078C205.864 70.3655 205.495 70.2035 205.103 70.1355C204.69 70.0406 204.269 69.981 203.849 69.9148L198.416 69.1314C197.868 69.0296 197.308 68.9999 196.752 69.0431C196.473 69.066 196.201 69.1441 195.953 69.2729C195.704 69.4017 195.484 69.5787 195.304 69.7934C195.142 69.9933 195.054 70.2424 195.053 70.4996C195.083 70.7584 195.167 71.008 195.3 71.2323C195.353 71.3371 195.398 71.4455 195.435 71.5567C195.487 71.8063 195.551 72.0531 195.629 72.296C195.653 72.3486 195.684 72.3976 195.721 72.4416C195.722 72.4541 195.722 72.4667 195.721 72.4792C195.662 72.7837 195.854 73.1015 195.768 73.395C195.693 73.6466 195.448 73.7988 195.293 74.0085C195.19 74.1572 195.133 74.3329 195.129 74.5138C195.125 74.6947 195.175 74.8728 195.271 75.0258C195.437 75.2818 195.737 75.4562 195.823 75.7497C195.936 76.1359 195.631 76.5088 195.36 76.8067C194.86 77.3552 194.399 77.9369 193.978 78.5479C193.86 78.6982 193.784 78.8772 193.757 79.0665C193.733 79.4505 194.102 79.7882 194.038 80.1699C193.987 80.4701 193.693 80.6532 193.44 80.832C192.502 81.4499 191.749 82.443 191.674 83.5663C191.433 81.7791 190.693 80.0962 189.538 78.7112C189.222 78.3317 188.876 77.9499 188.746 77.4688C188.697 77.2768 188.688 77.0716 188.622 76.8862C188.401 76.3014 187.7 76.0498 187.393 75.5113C187.172 75.1318 187.172 74.644 186.899 74.3108C186.625 73.9776 186.195 73.9026 185.958 73.5804C185.841 73.3621 185.74 73.1348 185.658 72.9007C185.559 72.7097 185.42 72.5426 185.25 72.4107C185.218 72.3847 185.184 72.3604 185.149 72.3379C185.185 72.3051 185.215 72.265 185.235 72.2201C185.255 72.1753 185.265 72.1267 185.266 72.0775C185.266 71.8193 185.01 71.6494 184.787 71.5214C184.5 71.3581 184.219 71.1815 183.946 70.9984C184.244 70.8594 184.503 70.6477 184.698 70.3827C184.943 69.9874 185.045 69.5198 184.985 69.0586C184.97 68.6863 184.831 68.3298 184.59 68.0456C184.451 67.8978 184.277 67.7918 184.131 67.6528C183.754 67.2843 183.626 66.7392 183.469 66.236C183.262 65.574 182.937 64.8788 182.333 64.528C182.041 64.358 181.701 64.2786 181.417 64.0998C181.132 63.9211 180.894 63.5834 180.993 63.259C181.059 63.0383 181.265 62.8861 181.404 62.6985C181.57 62.4559 181.633 62.1577 181.581 61.8685C181.528 61.5793 181.364 61.3225 181.123 61.1537C180.96 61.05 180.759 60.9595 180.726 60.7697C180.598 60.7365 180.482 60.668 180.392 60.572C180.301 60.4759 180.24 60.3563 180.214 60.2268C180.164 59.9673 180.164 59.7007 180.214 59.4412C180.271 59.0307 180.328 58.6217 180.384 58.2142C180.481 58.2546 180.585 58.2754 180.691 58.2754C180.796 58.2754 180.9 58.2546 180.997 58.2142C181.188 58.5241 181.41 58.814 181.66 59.0793C182.332 59.8729 182.855 60.7812 183.204 61.7606C183.33 62.1137 183.458 62.5087 183.785 62.6963C183.897 62.7603 184.025 62.7934 184.136 62.8618C184.272 62.9566 184.388 63.0765 184.48 63.2149C184.745 63.5658 185.01 63.9145 185.272 64.2653L185.285 64.3183C185.293 64.3494 185.304 64.3791 185.321 64.4066C185.37 64.4616 185.437 64.4962 185.51 64.5037C186.323 64.6912 187.234 64.8634 187.938 64.4198C188.574 64.0226 188.852 63.2369 189.39 62.7117C189.772 62.3388 190.313 62.0497 190.421 61.5245C190.292 61.4847 190.165 61.4383 190.041 61.3854C190.151 61.2751 190.262 61.1471 190.412 61.0014C190.63 60.788 190.826 60.5537 190.999 60.3019C191.185 59.9912 191.333 59.6593 191.44 59.3132C191.865 58.1009 192.292 56.8879 192.72 55.6741C192.923 55.1004 193.126 54.5222 193.382 53.9639C193.647 53.3592 193.96 52.7788 194.25 52.1852C194.996 50.6413 195.571 49.0207 195.966 47.3522C196.036 47.1246 196.06 46.8851 196.035 46.6482C195.973 46.2664 195.684 45.9663 195.408 45.6949C195.131 45.3946 194.815 45.1326 194.468 44.9159C194.294 44.8076 194.1 44.7351 193.898 44.7025C193.696 44.67 193.489 44.678 193.29 44.7261C192.725 44.8916 192.369 45.4698 192.239 46.0502C192.109 46.6306 192.157 47.2286 192.102 47.8156C192.023 48.6653 191.732 49.4862 191.661 50.338C191.623 50.8302 191.661 51.3289 191.601 51.821C191.493 52.4651 191.268 53.0841 190.939 53.6483C190.224 54.9937 189.255 56.1882 188.086 57.166C187.951 57.2785 187.812 57.3866 187.68 57.508C187.68 57.4131 187.695 57.316 187.708 57.2211C187.612 57.2461 187.519 57.2794 187.428 57.3204C187.439 57.209 187.428 57.0965 187.395 56.9894C187.219 56.462 186.433 56.3274 186.292 55.7911C186.268 55.6585 186.256 55.5242 186.254 55.3895C186.208 54.9194 185.888 54.5222 185.777 54.0654C185.676 53.6439 185.753 53.1826 185.557 52.792C185.389 52.5478 185.192 52.3254 184.97 52.13C184.705 51.8271 184.513 51.4667 184.411 51.0773C184.383 50.9692 184.356 50.8566 184.325 50.7485C184.359 50.5036 184.332 50.2543 184.246 50.0225C184.045 49.5237 183.527 49.2037 183.339 48.6984C183.193 48.3055 183.257 47.8156 182.981 47.5111C182.835 47.3656 182.655 47.2574 182.458 47.1955C181.448 46.8022 180.389 46.5518 179.309 46.4518C178.705 46.3966 178.038 46.3657 177.606 45.9398C177.1 45.4455 177.076 44.5561 176.485 44.1744C175.964 43.8367 175.227 44.0861 174.823 44.5606C174.762 44.6304 174.706 44.7041 174.655 44.7812C174.581 44.4855 174.566 44.1782 174.609 43.8764C174.609 43.8014 174.624 43.7242 174.631 43.6558C175.627 43.3301 176.475 42.6605 177.023 41.7667C177.023 41.7667 177.023 41.7667 177.023 41.78L177.049 41.8484C177.113 42.0095 177.215 42.1639 177.365 42.1816C177.465 42.1804 177.561 42.1454 177.639 42.0823C177.772 41.9898 177.895 41.8832 178.005 41.7645C178.061 41.7027 178.114 41.6387 178.164 41.5725C178.266 41.4347 178.353 41.2868 178.424 41.1311C178.534 40.8969 178.608 40.6478 178.645 40.3919C178.685 40.1359 178.689 39.8733 178.733 39.6173C178.775 39.4191 178.828 39.2238 178.894 39.0325C178.916 38.9685 178.939 38.9045 178.958 38.8405C178.978 38.7765 179.007 38.6904 179.029 38.6198C179.167 38.1659 179.241 37.695 179.25 37.2206C179.25 37.1412 179.25 37.0618 179.25 36.9823C179.242 36.6727 179.172 36.3679 179.045 36.0856C178.917 35.8032 178.735 35.5492 178.508 35.3382C178.129 35.0271 177.625 34.8969 177.347 34.4754C177.166 34.1929 177.127 33.8288 177.021 33.4977C176.906 33.1016 176.683 32.7454 176.377 32.4697C176.07 32.1939 175.692 32.0095 175.286 31.9375C174.797 31.8839 174.306 32.0189 173.914 32.3149L173.883 32.3391C173.664 32.5063 173.478 32.7128 173.335 32.9482C173.044 32.8679 172.777 32.7162 172.559 32.5069C172.338 32.3016 172.168 32.0434 171.945 31.8448C171.737 31.6541 171.481 31.5227 171.205 31.4645C170.928 31.4063 170.641 31.4233 170.374 31.5138C170.098 31.6242 169.853 31.7984 169.657 32.022C169.462 32.2456 169.323 32.5124 169.251 32.8004C169.129 33.255 169.151 33.778 168.897 34.1576C168.701 34.4533 168.379 34.5989 168.154 34.8682C168.014 35.0386 167.918 35.2411 167.876 35.4574C167.849 35.5784 167.836 35.702 167.838 35.8259C167.838 35.8811 167.838 35.9363 167.851 35.9892C167.851 35.9892 167.851 36.0069 167.851 36.0157C167.859 36.0762 167.872 36.136 167.889 36.1945C167.952 36.4182 168.064 36.6249 168.218 36.7991C168.363 36.966 168.545 37.0974 168.75 37.1831C168.833 37.2157 168.919 37.2429 169.006 37.2648L169.268 37.3244L169.361 37.3464C169.044 37.9415 168.868 38.6013 168.847 39.2752C168.825 39.949 168.959 40.6187 169.237 41.2327C169.237 41.2945 169.222 41.3562 169.215 41.418C169.179 42.287 169.218 43.1575 169.33 44.0199C169.361 44.3619 169.379 44.7393 169.169 45.0108C169.073 45.1175 168.966 45.213 168.849 45.2954C168.968 45.141 169.089 44.9887 169.213 44.8364C168.902 44.523 168.41 44.4833 167.968 44.5142C167.114 44.578 166.285 44.8313 165.541 45.2557C165.047 45.5404 164.539 45.9178 163.974 45.8516C163.641 45.814 163.312 45.6309 162.988 45.7191C162.805 45.7937 162.635 45.8949 162.482 46.0193C162.361 46.1059 162.216 46.1508 162.067 46.1473C161.721 45.7214 161.185 45.4323 160.77 45.0858C160.298 44.6655 159.865 44.2022 159.479 43.7021C158.764 42.8392 158.051 41.9742 157.349 41.1025C156.758 40.3698 156.151 39.5775 156.047 38.6396C156.036 38.5466 156.031 38.453 156.032 38.3594C156.046 37.9137 156.102 37.4704 156.199 37.0353C156.226 36.9302 156.226 36.8203 156.199 36.7153C156.133 36.4946 155.879 36.4129 155.661 36.3644C155.69 36.1945 155.709 36.0201 155.72 35.8546C155.844 33.9567 155.709 32.028 156.111 30.1698C156.263 29.4548 156.513 28.731 157.027 28.2124C157.832 27.3981 159.181 27.2016 159.799 26.2373C160.315 25.434 160.11 24.2975 159.461 23.5891C158.812 22.8807 157.813 22.5916 156.861 22.6269C156.594 22.6177 156.331 22.6884 156.104 22.8299C155.893 23.0179 155.734 23.2585 155.645 23.5273L154.699 25.829C154.424 26.4283 154.193 27.0463 154.006 27.6783C153.741 28.6449 153.681 29.6645 153.472 30.6399C153.472 31.3902 152.988 32.3259 152.724 33.0166C152.428 33.7934 152.108 34.5614 151.841 35.3537C151.775 35.5523 151.543 36.1415 151.399 36.6778C151.345 36.7093 151.295 36.7471 151.249 36.7903C151.134 36.938 151.029 37.0936 150.936 37.256C150.735 37.5208 150.409 37.662 150.188 37.918C149.967 38.174 149.921 38.6441 150.228 38.772C150.29 38.793 150.354 38.807 150.42 38.814C150.46 38.8174 150.5 38.824 150.539 38.8338C150.87 38.9265 151 39.3436 150.952 39.6879C150.903 40.0321 150.731 40.3499 150.702 40.6942C150.643 41.3033 151 41.8704 151.344 42.3824C151.701 42.9374 152.094 43.4675 152.523 43.9691C152.834 44.3178 153.185 44.6312 153.498 44.9666C154.692 46.1936 155.641 47.6281 156.714 48.961C157.099 49.4641 157.538 49.9242 158.022 50.3336C158.338 50.5809 158.669 50.8086 159.013 51.0155L160.858 52.1852C161.067 52.3385 161.304 52.4501 161.555 52.514C161.637 52.525 161.72 52.525 161.802 52.514C161.814 52.5691 161.822 52.6221 161.836 52.6773C161.979 53.2555 162.295 53.7807 162.33 54.3699C162.365 54.9591 162.312 55.5616 162.354 56.1574C162.394 56.7069 162.515 57.2609 162.546 57.8015C162.608 58.8432 162.352 59.8715 162.105 60.8911C161.732 62.3829 161.507 63.9056 160.781 65.2584C160.578 65.6314 160.339 66.0109 160.339 66.4369C160.339 66.4876 160.339 66.5406 160.353 66.5913L160.022 66.7789C159.924 66.8341 159.827 66.8893 159.739 66.9466C159.32 67.2203 158.872 67.5226 158.7 67.9949C158.561 68.3767 158.625 68.8136 158.457 69.1844C158.449 69.201 158.44 69.2172 158.43 69.2329C158.254 69.5772 157.903 69.8332 157.824 70.2105C157.764 70.4996 157.879 70.8064 157.824 71.0933C157.824 71.0933 157.824 71.0933 157.824 71.1043C157.773 71.2484 157.734 71.3959 157.704 71.5457C157.702 71.5946 157.706 71.6436 157.718 71.6913C157.76 71.8585 157.852 72.0087 157.982 72.1216C158.062 72.198 158.148 72.2667 158.241 72.3269C158.335 72.3887 158.432 72.446 158.532 72.499L158.589 72.5299C158.673 72.574 158.757 72.616 158.843 72.6557L158.901 72.68C159 72.7241 159.101 72.7638 159.203 72.7991L159.273 72.8212C159.353 72.8477 159.435 72.872 159.516 72.8918L159.571 72.9095L159.622 72.9205L159.843 72.9669L159.924 72.9823C160.022 72.9985 160.121 73.0117 160.222 73.022H160.311C160.386 73.022 160.459 73.0331 160.531 73.0353H160.635C160.712 73.0353 160.787 73.0353 160.856 73.0353H160.935C161.039 73.0353 161.143 73.0198 161.246 73.0066H161.279C161.372 72.9933 161.465 72.9779 161.558 72.958L161.628 72.9426C161.714 72.9227 161.8 72.9029 161.886 72.8764L161.933 72.8631C162.036 72.8322 162.14 72.7991 162.242 72.7594C162.593 72.615 162.934 72.4462 163.261 72.2541C163.482 72.1327 163.703 72.0091 163.923 71.8965C164.087 71.8141 164.255 71.7404 164.426 71.6759C164.844 71.4976 165.298 71.4219 165.751 71.4552C165.974 71.4856 166.195 71.5306 166.413 71.5898C166.413 71.6141 166.413 71.6383 166.413 71.6626C166.592 72.7219 166.769 73.7812 166.944 74.8405C167.233 74.6325 167.539 74.4487 167.858 74.291C167.798 74.4509 167.759 74.6177 167.741 74.7875C167.728 74.9188 167.728 75.0512 167.741 75.1825C167.761 75.3922 167.805 75.6239 167.679 75.7894C167.602 75.8909 167.459 75.9483 167.417 76.063C167.386 76.1804 167.379 76.3026 167.395 76.4228C167.386 76.5599 167.328 76.6893 167.231 76.7873C167.135 76.8853 167.006 76.9455 166.869 76.9568C166.933 77.1344 166.934 77.3282 166.874 77.5068C166.813 77.6853 166.694 77.8383 166.536 77.9411C166.444 77.9855 166.358 78.0419 166.28 78.1088C166.205 78.2063 166.154 78.3206 166.132 78.442C165.841 79.5349 165.241 80.5208 164.404 81.2822C164.091 81.5288 163.804 81.8084 163.55 82.1164C163.393 82.3548 163.264 82.6102 163.164 82.8777C162.576 84.3166 161.978 85.7562 161.372 87.1965C161.037 88.002 160.71 88.8207 160.604 89.688C160.339 92.067 158.221 94.084 158.618 96.4453C158.698 97.0352 158.936 97.5925 159.307 98.0585C159.748 98.5903 160.41 98.8949 161.072 99.1421C162.773 99.8041 164.568 100.166 166.355 100.53L169.162 101.106C169.713 101.233 170.272 101.321 170.835 101.371C171.513 101.417 172.208 101.353 172.868 101.525C173.276 101.631 173.666 101.828 174.088 101.85C174.45 101.87 174.896 101.792 175.11 102.088C175.324 102.384 175.158 102.774 175.361 103.037C175.688 103.454 176.485 103.037 176.84 103.43C176.937 103.581 177.011 103.745 177.061 103.918C177.114 104.024 177.19 104.119 177.281 104.196C177.303 104.32 177.312 104.447 177.308 104.573C177.262 105.086 177.155 105.591 176.99 106.078C176.725 106.974 176.461 107.871 176.198 108.768C176.097 109.085 176.023 109.41 175.977 109.739C175.96 109.899 175.96 110.06 175.977 110.22C176.023 110.708 176.304 111.211 176.769 111.37C177.13 111.466 177.515 111.418 177.842 111.238C178.157 111.073 178.454 110.873 178.724 110.642C179.213 110.272 179.642 109.83 179.998 109.331C181.101 107.68 180.744 105.447 181.518 103.622C182.033 102.404 183.034 101.415 183.368 100.131C183.446 99.8863 183.455 99.6252 183.394 99.376C183.255 98.9346 182.785 98.683 182.346 98.5241H182.326C181.965 98.3957 181.597 98.2903 181.223 98.2086C181.13 98.1887 181.035 98.1733 180.94 98.1578C180.73 97.987 180.563 97.7693 180.452 97.5222C180.435 97.3909 180.4 97.2625 180.349 97.1405C180.314 97.0879 180.266 97.0444 180.211 97.0137C180.156 96.983 180.094 96.9659 180.031 96.9639C179.81 96.9418 179.514 97.0213 179.274 97.0036C178.782 96.9683 178.455 96.485 178.014 96.2621C177.572 96.0393 177.094 96.0944 176.624 96.1275C176.455 96.1505 176.284 96.14 176.12 96.0966C175.924 96.0064 175.745 95.8832 175.591 95.7325C175.319 95.5211 175.002 95.3758 174.665 95.3081C174.327 95.2403 173.979 95.2519 173.647 95.3419C173.435 95.4272 173.212 95.4779 172.984 95.492C172.554 95.4677 172.25 95.0837 171.932 94.7924C171.062 93.9957 169.824 93.7861 168.769 93.2631C168.608 93.203 168.473 93.0871 168.39 92.9364C168.268 92.6363 168.542 92.3362 168.789 92.131L170.603 90.6237C172.589 88.973 175.072 87.7305 175.995 85.3097C176.091 84.9851 176.24 84.6786 176.436 84.4026C176.507 84.3184 176.59 84.2442 176.681 84.182C177.082 83.9219 177.569 83.8271 178.038 83.9171C178.61 84.0452 179.153 84.282 179.636 84.6145C180.426 85.0926 181.195 85.6076 181.942 86.1593C182.682 86.6883 183.386 87.2664 184.05 87.8894C185.208 88.9929 186.173 90.3015 187.252 91.491C188.331 92.6805 189.564 93.7905 191.063 94.3599C192.561 94.9292 194.373 94.9049 195.66 93.9494C197.145 92.846 197.622 90.8731 197.997 89.0635C198.824 88.2646 199.074 87.0486 199.477 85.9739C199.731 85.292 200.056 84.6498 200.329 83.9701C200.656 83.1712 200.912 82.3459 201.168 81.5227C201.458 80.6961 201.655 79.8397 201.755 78.9694C201.861 77.5946 201.492 76.1315 201.879 74.8405C202.388 74.7279 202.852 74.441 203.353 74.2733C204.099 74.0283 204.897 74.0681 205.688 74.0725H205.738C206.01 74.1014 206.284 74.0368 206.515 73.8893C206.78 73.6686 206.822 73.2913 206.835 72.9492C206.866 72.104 206.813 71.1551 206.18 70.6078ZM174.205 32.9637C174.022 33.0088 173.834 33.0223 173.647 33.0034L174.205 32.9637Z" fill="url(#paint0_linear_917_3080)"/>
<path d="M175.074 46.9239C174.807 47.1508 174.494 47.3172 174.156 47.4116L172.592 47.9721C171.742 48.2767 170.855 48.5834 169.959 48.4731C169.458 48.4113 167.311 48.0957 166.986 47.7051C166.492 47.1004 168.224 46.2111 168.816 45.7013C168.95 45.6049 169.074 45.4955 169.187 45.3747C169.407 45.1055 169.378 44.7281 169.348 44.3882C169.235 43.5273 169.197 42.6583 169.233 41.7908C169.25 41.584 169.28 41.3784 169.321 41.1751C169.542 40.1599 170.486 40.5307 171.232 40.7999C172.13 41.0916 172.998 41.4677 173.825 41.9232C174.077 42.053 174.296 42.2387 174.465 42.4661C174.792 42.9604 174.662 43.6092 174.609 44.2315C174.562 44.7148 174.565 45.1783 174.867 45.5292C175.019 45.6633 175.159 45.811 175.284 45.9705C175.355 46.1311 175.372 46.31 175.335 46.4814C175.297 46.6528 175.206 46.8077 175.074 46.9239Z" fill="#BE6F72"/>
<path d="M153.461 31.0193C153.681 30.0416 153.73 29.0331 153.995 28.0643C154.182 27.4344 154.413 26.8186 154.688 26.2216L155.661 23.9508C155.75 23.6827 155.908 23.4428 156.12 23.2556C156.347 23.1151 156.61 23.0445 156.877 23.0526C157.828 23.0173 158.828 23.313 159.477 24.0126C160.125 24.7122 160.331 25.8443 159.814 26.6453C159.196 27.6097 157.848 27.8039 157.042 28.616C156.528 29.1346 156.279 29.8563 156.127 30.5691C155.725 32.4228 155.86 34.345 155.736 36.2384C155.696 36.8276 155.581 37.5007 155.074 37.8053C154.767 37.9556 154.426 38.0218 154.085 37.9973L152.638 38.0215C152.395 38.0215 151.514 38.1738 151.353 37.9906C151.071 37.6707 151.715 36.0773 151.832 35.722C152.092 34.9342 152.412 34.1662 152.715 33.3916C152.977 32.7009 153.461 31.7674 153.461 31.0193Z" fill="#BE6F72"/>
<path d="M183.352 100.349C183.019 101.625 182.017 102.618 181.503 103.834C180.728 105.655 181.077 107.881 179.982 109.528C179.627 110.028 179.198 110.47 178.709 110.841C178.438 111.071 178.142 111.27 177.826 111.434C177.499 111.615 177.115 111.662 176.754 111.567C176.288 111.408 176.008 110.905 175.962 110.419C175.945 110.26 175.945 110.099 175.962 109.94C176.008 109.612 176.082 109.288 176.182 108.972C176.447 108.078 176.711 107.184 176.974 106.288C177.139 105.802 177.246 105.298 177.292 104.787C177.321 104.231 176.968 103.507 177.118 102.989C177.186 102.755 177.442 102.547 177.559 102.351C177.725 102.068 177.853 101.765 177.939 101.448C178.12 100.833 178.243 100.175 178.623 99.6565C178.871 99.3489 179.16 99.0778 179.484 98.851C179.722 98.6419 180.002 98.4848 180.305 98.3898C180.598 98.3381 180.9 98.3524 181.187 98.4317C181.562 98.5117 181.93 98.6164 182.291 98.7451H182.311C182.752 98.904 183.22 99.1489 183.359 99.5947C183.426 99.8421 183.424 100.103 183.352 100.349Z" fill="#3F3D56"/>
<path d="M206.833 73.2184C206.82 73.5605 206.778 73.9423 206.513 74.1563C206.282 74.3039 206.008 74.3685 205.736 74.3395H205.676C204.889 74.3395 204.088 74.2954 203.342 74.5403C202.774 74.7279 202.254 75.0722 201.662 75.1406C200.848 75.2333 200.082 74.7875 199.36 74.3991C198.681 74.0331 197.984 73.7016 197.271 73.406C196.803 73.214 195.847 73.0904 195.622 72.5785C195.545 72.3362 195.48 72.0902 195.428 71.8414C195.391 71.7302 195.346 71.6217 195.293 71.517C195.161 71.2934 195.077 71.0446 195.046 70.7865C195.047 70.5293 195.136 70.2801 195.298 70.0803C195.478 69.8672 195.698 69.6918 195.946 69.5642C196.194 69.4365 196.465 69.3592 196.743 69.3366C197.299 69.2934 197.859 69.3231 198.407 69.4249L203.84 70.2061C204.26 70.2657 204.681 70.3253 205.094 70.4268C205.486 70.4948 205.855 70.6568 206.171 70.8991C206.813 71.4375 206.866 72.3843 206.833 73.2184Z" fill="#3F3D56"/>
<path d="M202.057 74.631C201.395 76.0279 201.872 77.6808 201.753 79.2256C201.653 80.0937 201.456 80.948 201.166 81.7723C200.91 82.5932 200.654 83.4164 200.327 84.213C200.053 84.8751 199.729 85.5371 199.475 86.2124C199.071 87.2894 198.813 88.5009 197.994 89.302C197.619 91.1072 197.143 93.0801 195.657 94.1747C194.366 95.128 192.568 95.1611 191.061 94.5851C189.553 94.0092 188.329 92.9057 187.249 91.7163C186.17 90.5268 185.206 89.2314 184.047 88.1235C183.383 87.5003 182.678 86.923 181.935 86.3956C181.188 85.8527 180.419 85.3422 179.629 84.8641C179.146 84.5331 178.603 84.2972 178.031 84.1689C177.562 84.0788 177.076 84.1737 176.674 84.4337C176.583 84.496 176.501 84.5702 176.429 84.6544C176.233 84.9294 176.084 85.2352 175.988 85.5592C175.061 87.9735 172.574 89.2137 170.588 90.86L168.774 92.3629C168.527 92.5681 168.253 92.8682 168.374 93.1661C168.458 93.3168 168.593 93.4327 168.754 93.4928C169.809 94.0136 171.047 94.2232 171.916 95.0177C172.234 95.309 172.539 95.693 172.969 95.715C173.196 95.7017 173.42 95.6518 173.631 95.5672C173.963 95.4773 174.311 95.4657 174.649 95.5331C174.986 95.6004 175.303 95.7451 175.575 95.9556C175.73 96.1063 175.909 96.2294 176.105 96.3197C176.269 96.3631 176.44 96.3736 176.608 96.3506C177.078 96.3175 177.577 96.2756 177.998 96.4852C178.42 96.6949 178.766 97.1892 179.258 97.2245C179.499 97.2422 179.786 97.1627 180.015 97.1848C180.079 97.1868 180.14 97.2039 180.196 97.2346C180.251 97.2653 180.298 97.3087 180.333 97.3613C180.385 97.4826 180.42 97.6103 180.437 97.7409C180.527 98.0521 180.832 98.2419 181.031 98.4978C181.335 98.8907 181.379 99.4247 181.348 99.9213C181.248 101.474 180.556 102.929 179.415 103.986C179.091 104.317 178.678 104.547 178.226 104.648C177.999 104.696 177.764 104.671 177.552 104.577C177.341 104.483 177.164 104.325 177.047 104.125C176.998 103.953 176.924 103.79 176.827 103.64C176.471 103.249 175.675 103.664 175.348 103.247C175.145 102.987 175.291 102.569 175.096 102.3C174.902 102.031 174.434 102.08 174.075 102.064C173.653 102.042 173.263 101.843 172.854 101.74C172.192 101.568 171.499 101.632 170.822 101.585C170.259 101.536 169.7 101.447 169.149 101.32L166.342 100.747C164.554 100.382 162.76 100.014 161.059 99.3629C160.408 99.1158 159.752 98.8112 159.293 98.2816C158.923 97.8162 158.685 97.2597 158.605 96.6706C158.205 94.3159 160.324 92.3033 160.591 89.9309C160.686 89.0659 161.032 88.2493 161.359 87.446C161.958 86.0101 162.555 84.5735 163.151 83.1361C163.247 82.8685 163.373 82.6124 163.526 82.3725C163.78 82.0653 164.066 81.7864 164.38 81.5406C165.216 80.7817 165.816 79.7979 166.108 78.707C166.13 78.5856 166.18 78.4713 166.256 78.3738C166.334 78.3083 166.42 78.2527 166.512 78.2083C166.669 78.1057 166.788 77.953 166.848 77.7749C166.909 77.5968 166.908 77.4036 166.845 77.2262C166.982 77.2149 167.11 77.1547 167.207 77.0567C167.303 76.9587 167.361 76.8293 167.37 76.6922C167.354 76.5727 167.362 76.4513 167.392 76.3347C167.445 76.2199 167.578 76.1625 167.655 76.061C167.781 75.8955 167.737 75.6638 167.717 75.4563C167.704 75.325 167.704 75.1927 167.717 75.0613C167.765 74.594 167.974 74.158 168.308 73.8277C168.836 73.3091 169.586 73.4437 170.314 73.3201C171.041 73.1633 171.75 72.9364 172.433 72.6426C174.348 71.8881 176.364 71.4218 178.415 71.259C180.477 71.0968 182.548 71.4266 184.458 72.2211C184.736 72.3337 184.997 72.482 185.237 72.6625C185.407 72.7935 185.546 72.9599 185.645 73.1502C185.726 73.3838 185.827 73.6104 185.945 73.8277C186.181 74.1499 186.627 74.2536 186.885 74.5582C187.143 74.8627 187.166 75.3769 187.38 75.7543C187.686 76.2927 188.397 76.5421 188.609 77.1269C188.675 77.3123 188.684 77.5153 188.732 77.7073C188.852 78.1884 189.209 78.568 189.525 78.9476C190.682 80.3313 191.422 82.0148 191.661 83.8026C191.731 82.6837 192.484 81.6928 193.426 81.0749C193.68 80.9094 193.974 80.7263 194.024 80.4261C194.088 80.0465 193.72 79.7089 193.744 79.3227C193.771 79.1341 193.847 78.956 193.965 78.8063C194.385 78.1967 194.847 77.6165 195.346 77.0695C195.618 76.7716 195.922 76.4075 195.81 76.0147C195.724 75.7212 195.424 75.549 195.258 75.293C195.161 75.1404 195.112 74.9627 195.116 74.7821C195.12 74.6016 195.177 74.4262 195.28 74.2779C195.435 74.0683 195.679 73.916 195.755 73.6666C195.841 73.3731 195.649 73.0553 195.708 72.753C195.789 72.5109 195.949 72.3032 196.163 72.1638C196.456 71.8972 196.788 71.6782 197.149 71.5149C197.732 71.2943 198.381 71.3759 198.999 71.462C200.031 71.6054 201.19 71.8261 201.773 72.6912C202.146 73.2319 202.335 74.0528 202.057 74.631Z" fill="#65617D"/>
<path opacity="0.1" d="M206.833 73.2184C206.819 73.5605 206.778 73.9423 206.513 74.1563C206.282 74.3038 206.008 74.3685 205.736 74.3395H205.676C205.767 73.8805 206.325 73.6179 206.422 73.1522C206.439 73.0092 206.426 72.8643 206.384 72.7265C206.342 72.5887 206.273 72.4609 206.18 72.3511C205.707 71.7134 204.948 71.3603 204.193 71.1021C202.061 70.3711 199.777 70.2001 197.56 70.6055C196.957 70.7037 196.37 70.8842 195.816 71.1418C195.633 71.2567 195.456 71.3819 195.287 71.517C195.154 71.2934 195.07 71.0446 195.039 70.7865C195.04 70.5293 195.129 70.2801 195.291 70.0803C195.471 69.8672 195.691 69.6918 195.939 69.5642C196.188 69.4365 196.458 69.3592 196.736 69.3366C197.293 69.2934 197.852 69.3231 198.4 69.4249L203.834 70.2061C204.253 70.2657 204.674 70.3253 205.087 70.4268C205.479 70.4948 205.849 70.6568 206.164 70.8991C206.813 71.4375 206.866 72.3842 206.833 73.2184Z" fill="black"/>
<path opacity="0.1" d="M183.352 100.349C183.019 101.624 182.017 102.617 181.503 103.833C180.728 105.654 181.077 107.881 179.982 109.527C179.627 110.027 179.198 110.47 178.709 110.84C178.438 111.07 178.142 111.27 177.826 111.434C177.499 111.614 177.115 111.662 176.754 111.566C176.288 111.407 176.008 110.904 175.962 110.418C175.945 110.259 175.945 110.099 175.962 109.94L175.975 109.975C176.167 110.438 176.48 110.924 176.974 111.006C177.16 111.019 177.346 110.994 177.522 110.932C177.697 110.87 177.858 110.773 177.994 110.646C178.722 110.061 179.146 109.189 179.55 108.348C179.866 107.742 180.116 107.104 180.296 106.444C180.384 106.069 180.426 105.685 180.516 105.31C180.936 103.487 182.364 101.999 182.679 100.152C182.705 100.025 182.711 99.895 182.697 99.7661C182.655 99.5981 182.591 99.4363 182.507 99.285C182.43 99.1142 182.374 98.935 182.339 98.751C182.781 98.9099 183.248 99.1548 183.387 99.6006C183.444 99.8485 183.432 100.107 183.352 100.349Z" fill="black"/>
<path opacity="0.1" d="M180.02 97.184C179.816 97.7179 179.472 98.1874 179.025 98.5434C178.396 99.0221 177.661 99.3402 176.882 99.4703C176.519 99.5628 176.139 99.5582 175.778 99.457C175.288 99.2871 174.935 98.8281 174.434 98.6957C174.077 98.5986 173.693 98.6846 173.331 98.6317C172.68 98.5412 172.175 98.0446 171.649 97.6474C170.041 96.4381 167.929 96.0475 166.32 94.8381C166.248 94.7941 166.189 94.7326 166.148 94.6594C166.117 94.5801 166.106 94.4946 166.115 94.41C166.121 93.6765 166.285 92.9529 166.598 92.2892C166.854 91.8262 167.159 91.3919 167.507 90.9938C168.948 89.2284 170.396 87.4497 172.122 85.96C172.845 85.3355 173.635 84.7529 174.549 84.4704C175.057 84.3137 176.059 84.1659 176.676 84.4307C176.585 84.4929 176.503 84.5672 176.432 84.6514C176.235 84.9263 176.086 85.2321 175.99 85.5562C175.061 87.9727 172.574 89.2129 170.588 90.8592L168.774 92.3621C168.527 92.5673 168.253 92.8674 168.374 93.1653C168.458 93.316 168.593 93.4319 168.754 93.492C169.809 94.0128 171.047 94.2224 171.916 95.0169C172.234 95.3082 172.539 95.6922 172.969 95.7142C173.196 95.7009 173.42 95.651 173.631 95.5664C173.963 95.4765 174.311 95.4649 174.649 95.5323C174.986 95.5996 175.303 95.7443 175.575 95.9548C175.73 96.1055 175.909 96.2286 176.105 96.3189C176.269 96.3623 176.44 96.3728 176.608 96.3498C177.078 96.3167 177.577 96.2748 177.998 96.4844C178.42 96.6941 178.766 97.1884 179.258 97.2237C179.503 97.2414 179.79 97.1575 180.02 97.184Z" fill="black"/>
<path d="M159.724 67.2326C159.304 67.5018 158.859 67.8064 158.686 68.2742C158.545 68.656 158.611 69.093 158.442 69.4637C158.272 69.8345 157.89 70.0927 157.806 70.4899C157.746 70.779 157.863 71.0835 157.806 71.3726C157.756 71.523 157.715 71.6763 157.685 71.8316C157.662 72.1605 157.945 72.4275 158.221 72.6107C158.808 72.9926 159.477 73.2316 160.173 73.3082C160.87 73.3849 161.574 73.2971 162.231 73.052C162.82 72.8313 163.352 72.4716 163.917 72.1892C164.468 71.8719 165.098 71.7188 165.733 71.7478C166.097 71.7875 166.446 71.9199 166.81 71.9685C166.99 72.004 167.175 71.9953 167.351 71.943C167.527 71.8907 167.687 71.7964 167.818 71.6683C167.931 71.5131 168.006 71.3342 168.039 71.1453C168.346 69.9338 168.207 68.6494 167.915 67.4312C167.624 66.2131 167.183 65.0412 166.872 63.8297C166.651 62.9315 166.481 62.0113 166.112 61.1616C165.744 60.312 165.124 59.522 164.256 59.1975C164.188 59.164 164.111 59.1539 164.036 59.1689C163.98 59.1921 163.931 59.2285 163.892 59.2748C163.206 60.0018 162.689 60.8714 162.378 61.8215C162.032 62.8785 161.937 63.9996 161.619 65.0611C161.483 65.5025 161.306 66.0939 160.957 66.4315C160.609 66.7692 160.119 66.9788 159.724 67.2326Z" fill="#3F3D56"/>
<path opacity="0.1" d="M168.046 71.1398C168.009 71.3293 167.929 71.5081 167.814 71.6628C167.683 71.7913 167.523 71.8857 167.347 71.9377C167.171 71.9896 166.985 71.9976 166.805 71.9608C166.443 71.9166 166.095 71.782 165.731 71.7401C165.095 71.7107 164.465 71.8638 163.914 72.1814C163.349 72.4639 162.811 72.8148 162.226 73.0421C161.371 73.3665 160.436 73.4197 159.549 73.1944C159.078 73.076 158.631 72.879 158.225 72.6118C157.947 72.4308 157.667 72.1704 157.689 71.8328C157.72 71.6781 157.76 71.5255 157.81 71.376C157.868 71.0869 157.753 70.7823 157.81 70.4932C157.894 70.096 158.278 69.8312 158.446 69.4648C158.614 69.0985 158.55 68.6594 158.689 68.2776C158.861 67.8075 159.309 67.5052 159.728 67.2337C160.147 66.9623 160.646 66.7549 160.982 66.426C161.025 66.3748 161.064 66.3202 161.099 66.2627C161.34 65.8897 161.518 65.4786 161.624 65.0468C161.948 63.9831 162.036 62.8642 162.381 61.8049C162.693 60.8557 163.211 59.9869 163.897 59.2605C163.933 59.2131 163.982 59.1765 164.038 59.1546C164.112 59.1394 164.19 59.1487 164.259 59.181C165.124 59.5076 165.744 60.2977 166.115 61.1473C166.485 61.9969 166.642 62.9128 166.874 63.8132C167.183 65.0247 167.626 66.2009 167.918 67.4169C168.209 68.6329 168.352 69.9261 168.046 71.1398Z" fill="black"/>
<path opacity="0.1" d="M174.609 44.2251C173.571 44.5549 172.448 44.4894 171.456 44.0413C170.463 43.5932 169.672 42.7941 169.233 41.7976C169.25 41.5908 169.28 41.3852 169.321 41.1819C169.542 40.1668 170.486 40.5375 171.232 40.8068C172.13 41.0984 172.998 41.4745 173.825 41.93C174.077 42.0599 174.296 42.2456 174.465 42.4729C174.792 42.9606 174.662 43.6094 174.609 44.2251Z" fill="black"/>
<path d="M173.276 44.2121C175.713 44.2121 177.689 42.236 177.689 39.7984C177.689 37.3608 175.713 35.3848 173.276 35.3848C170.838 35.3848 168.862 37.3608 168.862 39.7984C168.862 42.236 170.838 44.2121 173.276 44.2121Z" fill="#BE6F72"/>
<path opacity="0.1" d="M185.252 72.7808C185.252 73.1472 184.756 73.2641 184.387 73.2443C183.063 73.167 181.768 72.8029 180.457 72.9133C178.799 73.0633 177.277 73.9791 175.615 74.063C174.975 74.0961 174.324 74.0012 173.693 74.1182C172.876 74.2704 172.148 74.767 171.316 74.8376C170.594 74.8994 169.882 74.628 169.16 74.6566C168.656 74.6867 168.164 74.8268 167.719 75.0671C167.767 74.5998 167.976 74.1638 168.31 73.8335C168.838 73.3149 169.588 73.4495 170.316 73.3259C171.043 73.1691 171.752 72.9422 172.435 72.6484C174.35 71.8939 176.366 71.4276 178.418 71.2648C180.478 71.1009 182.548 71.4284 184.458 72.2203C184.736 72.3328 184.997 72.4812 185.237 72.6617C185.249 72.7002 185.254 72.7405 185.252 72.7808Z" fill="black"/>
<path d="M171.234 47.8576L169.447 47.1955L168.692 46.9175C168.385 46.7886 168.061 46.7025 167.73 46.6615C166.865 46.5953 166.051 47.1713 165.589 47.9061C165.128 48.641 164.954 49.5171 164.806 50.3712C164.603 51.5393 164.431 52.7119 164.29 53.8888C164.137 54.9517 164.06 56.0239 164.058 57.0976C164.109 59.8296 164.687 62.5242 165.322 65.1834C165.634 66.3624 165.869 67.5603 166.026 68.7695C166.079 69.2682 166.104 69.7692 166.157 70.2701C166.214 70.8329 166.307 71.389 166.399 71.9473L166.931 75.1185C167.593 74.6485 168.346 74.2358 169.16 74.2115C169.882 74.185 170.597 74.4543 171.316 74.3925C172.144 74.3241 172.876 73.8275 173.693 73.6753C174.324 73.5583 174.975 73.651 175.617 73.6201C177.277 73.5362 178.802 72.6182 180.457 72.4703C181.77 72.3512 183.074 72.7219 184.389 72.7991C184.756 72.8212 185.252 72.7043 185.252 72.3357C185.252 72.0797 184.996 71.9098 184.773 71.7818C183.723 71.1492 182.723 70.4357 181.783 69.6478C180.914 68.9593 180.031 68.2531 179.433 67.3218C177.992 65.0819 178.486 62.0519 177.257 59.6884C176.257 57.7684 177.257 55.2527 177.257 53.0878C177.257 52.0086 177.257 50.9162 177.003 49.868C176.844 49.2817 176.647 48.7067 176.412 48.1467L175.553 45.9729C175.535 45.9094 175.5 45.8521 175.452 45.8074C175.394 45.7677 175.325 45.7469 175.255 45.7479C174.74 45.7169 174.231 45.8799 173.83 46.2047C173.426 46.5335 173.168 47.0057 172.77 47.3478C172.336 47.7252 171.775 48.0562 171.234 47.8576Z" fill="#E3E8F4"/>
<path d="M174.119 46.604C174.26 45.9993 174.412 45.3704 174.816 44.8981C175.22 44.4259 175.957 44.1765 176.478 44.5141C177.069 44.8981 177.094 45.7853 177.599 46.2796C178.04 46.7033 178.702 46.7364 179.303 46.7916C180.382 46.8898 181.442 47.1394 182.452 47.5331C182.649 47.5941 182.828 47.7016 182.975 47.8464C183.251 48.1598 183.196 48.6409 183.332 49.0315C183.52 49.5347 184.039 49.8547 184.239 50.3556C184.46 50.9117 184.239 51.5341 184.054 52.1056C183.721 53.1318 183.511 54.1977 183.187 55.2283C182.862 56.2589 182.401 57.274 181.642 58.0508C181.307 58.3951 180.808 58.7129 180.366 58.5076L180.196 59.7324C180.147 59.9912 180.147 60.2571 180.196 60.5159C180.222 60.6453 180.284 60.765 180.374 60.861C180.465 60.957 180.581 61.0256 180.708 61.0587C180.742 61.2485 180.942 61.339 181.106 61.4427C181.226 61.5252 181.329 61.6307 181.409 61.7532C181.488 61.8758 181.542 62.0129 181.569 62.1566C181.595 62.3003 181.592 62.4477 181.561 62.5903C181.529 62.733 181.47 62.868 181.386 62.9875C181.247 63.1751 181.042 63.3229 180.975 63.5458C180.876 63.868 181.112 64.2079 181.399 64.3844C181.686 64.561 182.024 64.6426 182.315 64.8126C182.92 65.1612 183.244 65.8476 183.452 66.514C183.606 67.0172 183.734 67.5623 184.114 67.9286C184.259 68.0676 184.434 68.1736 184.573 68.3192C184.813 68.6035 184.952 68.96 184.968 69.3321C185.028 69.7934 184.927 70.2614 184.681 70.6562C184.239 71.2874 183.416 71.475 182.695 71.7597C181.523 72.2407 180.558 73.1014 179.526 73.8341C179.105 74.1728 178.609 74.4059 178.08 74.5138C177.365 74.6087 176.661 74.2931 175.942 74.2644C175.511 74.2684 175.083 74.3247 174.666 74.4321L173.342 74.719C173.413 73.6928 172.848 72.6645 172.532 71.6868C171.936 69.8463 171.826 67.8778 171.967 65.9491C172.108 64.0203 172.501 62.118 172.89 60.2246C173.161 58.9005 173.135 57.5168 173.552 56.2302C173.942 54.9922 174.501 53.8027 174.706 52.5139C175.041 50.4284 173.647 48.6608 174.119 46.604Z" fill="#3F3D56"/>
<path d="M184.158 50.6844C184.279 50.9087 184.365 51.1507 184.411 51.4017C184.514 51.7904 184.705 52.15 184.97 52.4521C185.192 52.6479 185.389 52.8703 185.557 53.1142C185.76 53.4981 185.683 53.966 185.778 54.3853C185.888 54.8421 186.208 55.2393 186.254 55.7094C186.256 55.8441 186.268 55.9784 186.292 56.111C186.435 56.6451 187.221 56.7731 187.395 57.3071C187.512 57.6536 187.311 58.031 187.349 58.3951C187.376 58.5077 187.383 58.6244 187.369 58.7394C187.319 58.8694 187.231 58.9816 187.117 59.0616C186.387 59.7593 185.881 60.6591 185.665 61.6458C185.452 62.6271 185.341 63.6276 185.332 64.6316L184.469 63.4907C184.377 63.3523 184.261 63.2324 184.125 63.1376C184.014 63.0714 183.886 63.0383 183.774 62.9721C183.447 62.7867 183.319 62.3939 183.193 62.0408C182.844 61.0634 182.321 60.1572 181.649 59.3661C181.298 58.9534 180.889 58.5385 180.812 58.0023C180.789 57.756 180.802 57.5076 180.852 57.2652C181.073 55.8197 181.309 54.3389 182.013 53.0568C182.341 52.4565 182.767 51.9136 183.083 51.3046C183.295 50.9007 183.593 49.8503 184.158 50.6844Z" fill="#3F3D56"/>
<path d="M162.387 52.0722C162.391 52.258 162.344 52.4413 162.25 52.6019C162.166 52.6996 162.056 52.772 161.933 52.811C161.81 52.85 161.678 52.854 161.553 52.8226C161.302 52.7595 161.065 52.6486 160.856 52.496C160.241 52.1076 159.626 51.7184 159.011 51.3285C158.668 51.1216 158.337 50.8947 158.02 50.6488C157.536 50.2402 157.097 49.7808 156.711 49.2784C155.639 47.9543 154.69 46.5177 153.496 45.3061C153.172 44.9751 152.834 44.6573 152.521 44.3108C152.092 43.81 151.699 43.2806 151.342 42.7263C150.998 42.2165 150.64 41.6516 150.7 41.0425C150.735 40.6982 150.901 40.3805 150.949 40.0384C150.998 39.6963 150.868 39.2793 150.537 39.1866C150.498 39.1767 150.458 39.1701 150.417 39.1667C150.352 39.1598 150.288 39.1457 150.225 39.1248C149.919 38.9968 149.965 38.5223 150.186 38.2729C150.406 38.0236 150.733 37.8845 150.934 37.6109C151.027 37.4485 151.132 37.2929 151.247 37.1453C151.395 37.0186 151.572 36.9299 151.761 36.8871C153.034 36.5119 154.381 36.4611 155.679 36.7392C155.899 36.7877 156.151 36.876 156.217 37.0901C156.243 37.1944 156.243 37.3036 156.217 37.4079C156.12 37.843 156.064 38.2863 156.049 38.732C156.049 38.8249 156.054 38.9177 156.065 39.01C156.168 39.9457 156.775 40.738 157.367 41.4684C158.069 42.3379 158.781 43.2008 159.496 44.0615C159.883 44.5602 160.315 45.0219 160.787 45.4407C161.229 45.8071 161.8 46.1028 162.145 46.5728C162.425 46.9524 162.334 47.471 162.365 47.9278C162.468 49.3071 162.475 50.6919 162.387 52.0722Z" fill="#3F3D56"/>
<path d="M190.414 61.2794C190.632 61.0675 190.829 60.8347 191.001 60.5843C191.186 60.274 191.335 59.9429 191.442 59.5978L192.722 55.9676C192.925 55.3938 193.128 54.8178 193.384 54.2595C193.649 53.657 193.963 53.0766 194.252 52.494C194.995 50.9608 195.57 49.3515 195.966 47.6942C196.036 47.4665 196.059 47.2271 196.035 46.9902C195.973 46.6084 195.684 46.3105 195.408 46.0391C195.131 45.7394 194.814 45.4782 194.468 45.2623C194.294 45.154 194.1 45.0815 193.898 45.0489C193.695 45.0164 193.489 45.0244 193.289 45.0725C192.725 45.238 192.369 45.8162 192.239 46.3966C192.109 46.977 192.157 47.5706 192.102 48.162C192.023 49.0095 191.731 49.8282 191.661 50.6778C191.623 51.1699 191.661 51.6665 191.601 52.1564C191.493 52.7997 191.268 53.4181 190.939 53.9814C190.222 55.3234 189.253 56.5147 188.086 57.4903C187.766 57.7264 187.478 58.0031 187.23 58.3135C187.022 58.6238 186.881 58.9741 186.817 59.3418C186.67 59.9018 186.734 60.4961 186.996 61.0124C187.355 61.6259 188.046 61.8951 188.706 62.032C189.597 62.2173 189.803 61.9128 190.414 61.2794Z" fill="#BE6F72"/>
<path d="M173.302 33.4018C173.492 33.0448 173.783 32.7517 174.139 32.559C174.494 32.3663 174.899 32.2826 175.302 32.3183C175.707 32.3901 176.085 32.5742 176.391 32.8495C176.698 33.1249 176.921 33.4806 177.036 33.8763C177.14 34.2051 177.182 34.5692 177.363 34.8517C177.636 35.2776 178.144 35.4012 178.524 35.7102C178.75 35.9207 178.933 36.1744 179.06 36.4563C179.187 36.7383 179.257 37.0428 179.265 37.3521C179.286 37.9837 179.187 38.6137 178.972 39.208C178.88 39.4616 178.807 39.7211 178.751 39.9848C178.707 40.2408 178.702 40.5012 178.663 40.7572C178.614 41.0891 178.499 41.4079 178.325 41.6948C178.151 41.9817 177.921 42.2309 177.65 42.4278C177.572 42.4909 177.476 42.5259 177.376 42.5271C177.204 42.5072 177.098 42.3064 177.034 42.1254C176.683 41.1125 176.767 39.8745 176.12 39.0668C175.826 38.7409 175.471 38.4762 175.074 38.2877C174.913 38.1835 174.731 38.115 174.54 38.0869C174.26 38.102 173.991 38.2003 173.768 38.3694C173.302 38.6818 172.785 38.9104 172.241 39.0447C171.969 39.1091 171.686 39.112 171.413 39.0532C171.14 38.9944 170.884 38.8754 170.663 38.7048C170.358 38.4533 170.135 38.0759 169.798 37.8795C169.46 37.6831 169.107 37.6941 168.774 37.5595C168.561 37.4692 168.372 37.3316 168.221 37.1572C168.07 36.9827 167.961 36.7761 167.902 36.5531C167.843 36.33 167.835 36.0964 167.88 35.87C167.925 35.6436 168.021 35.4304 168.16 35.2467C168.381 34.9819 168.708 34.8319 168.904 34.5383C169.158 34.1588 169.136 33.638 169.257 33.1833C169.329 32.8957 169.468 32.6294 169.664 32.4064C169.859 32.1834 170.105 32.0102 170.38 31.9012C170.648 31.8104 170.935 31.793 171.211 31.8508C171.487 31.9087 171.743 32.0396 171.952 32.23C172.172 32.4286 172.349 32.6846 172.565 32.8921C172.779 33.0964 173.04 33.2439 173.325 33.3211C173.611 33.3982 173.911 33.4024 174.198 33.3334" fill="#3F3D56"/>
<path opacity="0.1" d="M176.93 65.8848C176.802 65.9992 176.711 66.1497 176.669 66.3166C176.627 66.4835 176.637 66.6591 176.696 66.8205C176.745 66.9242 179.022 66.4851 179.263 66.452C179.863 66.3659 180.916 66.4078 181.32 65.8583C182.039 64.8851 179.81 65.1014 179.402 65.1367C178.625 65.2029 177.522 65.3088 176.93 65.8848Z" fill="black"/>
<path d="M156.213 37.4167C156.115 37.8518 156.059 38.2951 156.045 38.7408C155.383 38.8754 154.694 38.6547 154.059 38.434L152.234 37.8117C152.123 37.7408 151.989 37.7147 151.859 37.7389C151.73 37.7631 151.614 37.8357 151.536 37.9419C151.243 38.2465 150.839 38.8247 150.433 39.1667C150.368 39.1598 150.303 39.1457 150.241 39.1248C149.934 38.9968 149.98 38.5223 150.201 38.2729C150.422 38.0236 150.748 37.8845 150.949 37.6109C151.043 37.4485 151.147 37.2929 151.263 37.1453C151.41 37.0186 151.587 36.9299 151.777 36.8871C153.05 36.5119 154.396 36.4611 155.694 36.7392C155.915 36.7877 156.166 36.876 156.232 37.0901C156.254 37.1989 156.247 37.3113 156.213 37.4167Z" fill="#3F3D56"/>
<path opacity="0.1" d="M156.213 37.4167C156.115 37.8518 156.059 38.2951 156.045 38.7408C155.383 38.8754 154.694 38.6547 154.059 38.434L152.234 37.8117C152.123 37.7408 151.989 37.7147 151.859 37.7389C151.73 37.7631 151.614 37.8357 151.536 37.9419C151.243 38.2465 150.839 38.8247 150.433 39.1667C150.368 39.1598 150.303 39.1457 150.241 39.1248C149.934 38.9968 149.98 38.5223 150.201 38.2729C150.422 38.0236 150.748 37.8845 150.949 37.6109C151.043 37.4485 151.147 37.2929 151.263 37.1453C151.41 37.0186 151.587 36.9299 151.777 36.8871C153.05 36.5119 154.396 36.4611 155.694 36.7392C155.915 36.7877 156.166 36.876 156.232 37.0901C156.254 37.1989 156.247 37.3113 156.213 37.4167Z" fill="black"/>
<path opacity="0.1" d="M172.907 79.3133C173.225 79.4192 173.569 79.5737 173.677 79.8915L171.122 79.2427L169.798 78.905C169.564 78.8454 168.725 78.777 168.571 78.5939C168.35 78.3246 169.134 78.51 169.275 78.5299C169.703 78.5939 170.131 78.6601 170.557 78.7373C171.36 78.8807 172.133 79.1169 172.907 79.3133Z" fill="black"/>
<path opacity="0.1" d="M173.898 81.5757C173.678 81.4279 173.044 81.4455 172.773 81.3815C172.376 81.2866 171.985 81.1608 171.594 81.0395C170.802 80.7813 170.016 80.4878 169.202 80.298C169.052 80.2649 168.54 80.256 168.564 80.0663C168.589 79.8765 169.076 79.8103 169.198 79.8014C169.919 79.7485 170.82 80.0861 171.491 80.3267C172.346 80.6329 173.155 81.0531 173.898 81.5757Z" fill="black"/>
<path opacity="0.1" d="M172.278 77.2964C171.468 77.0757 170.734 76.5725 169.899 76.4754C169.682 76.4837 169.468 76.4184 169.292 76.29C169.194 76.1937 169.126 76.0711 169.096 75.9369C169.654 75.9083 170.303 76.1444 170.811 76.3673C171.09 76.4871 171.359 76.6303 171.614 76.7954C171.799 76.908 172.077 77.2324 172.278 77.2964Z" fill="black"/>
<path d="M187.717 57.5371C187.58 58.4546 187.779 59.3907 188.275 60.1741C188.772 60.9575 189.535 61.5357 190.423 61.8029C190.315 62.3259 189.774 62.615 189.392 62.988C188.854 63.511 188.576 64.2944 187.94 64.6917C187.232 65.133 186.32 64.9609 185.513 64.7755C185.439 64.7673 185.372 64.7319 185.323 64.6762C185.306 64.6498 185.294 64.6206 185.288 64.5901C185.021 63.6125 184.846 62.5687 185.12 61.5889C185.341 60.7547 185.87 60.0441 186.294 59.307C186.718 58.5699 186.757 57.7799 187.717 57.5371Z" fill="#3F3D56"/>
<path d="M167.986 44.8832C167.132 44.9454 166.302 45.198 165.559 45.6225C165.064 45.905 164.557 46.2846 163.992 46.2161C163.658 46.1786 163.33 45.9955 163.005 46.0837C162.822 46.1575 162.652 46.2587 162.5 46.3839C162.423 46.4453 162.331 46.4858 162.233 46.5012C162.136 46.5167 162.036 46.5067 161.944 46.4721L161.723 49.5264C161.639 50.6872 161.558 51.8723 161.836 53.0044C161.979 53.5826 162.295 54.1078 162.33 54.6948C162.365 55.2818 162.312 55.8843 162.354 56.4779C162.394 57.0274 162.515 57.5681 162.546 58.1176C162.608 59.1548 162.352 60.1832 162.105 61.1917C161.732 62.6791 161.507 64.1996 160.781 65.5458C160.578 65.9187 160.339 66.2983 160.339 66.722C160.339 66.775 160.339 66.8257 160.353 66.8765C160.132 66.9979 159.927 67.1126 159.739 67.2318C159.32 67.5032 158.872 67.8056 158.7 68.2756C158.561 68.6574 158.625 69.0944 158.457 69.4629C158.289 69.8314 157.905 70.094 157.821 70.4913C157.762 70.7804 157.877 71.0849 157.821 71.374C157.771 71.5236 157.731 71.6762 157.7 71.8308C157.678 72.1619 157.958 72.4289 158.236 72.6098C158.642 72.8771 159.089 73.0741 159.56 73.1924L160.878 67.9623C162.079 65.7413 163.078 63.417 163.864 61.0174C164.088 60.233 164.377 59.4683 164.727 58.7311C164.976 58.314 165.198 57.8805 165.389 57.4335C165.589 56.8773 165.609 56.2749 165.706 55.6879C165.822 55.0027 165.995 54.3287 166.225 53.673C166.463 52.9646 166.739 52.2585 166.788 51.5148C166.861 50.4511 166.474 49.3278 166.885 48.3435C167.059 47.9751 167.286 47.6339 167.558 47.3306C168.127 46.6332 168.646 45.9028 169.215 45.2054C168.92 44.8898 168.427 44.8567 167.986 44.8832Z" fill="#3F3D56"/>
<g opacity="0.1">
<path opacity="0.1" d="M174.205 32.6758L173.929 32.6956L173.898 32.7177C174.001 32.7135 174.104 32.6995 174.205 32.6758Z" fill="black"/>
<path opacity="0.1" d="M179.254 37.2569C179.208 37.6957 179.113 38.1279 178.972 38.5457C178.88 38.7993 178.807 39.0588 178.751 39.3225C178.707 39.5785 178.702 39.8389 178.663 40.0949C178.614 40.4268 178.499 40.7456 178.325 41.0325C178.151 41.3194 177.921 41.5686 177.65 41.7655C177.572 41.8286 177.476 41.8636 177.376 41.8648C177.204 41.8449 177.098 41.6441 177.034 41.4631C176.683 40.4502 176.767 39.2122 176.12 38.4045C175.826 38.0786 175.471 37.8139 175.074 37.6255C174.913 37.5212 174.731 37.4527 174.54 37.4246C174.26 37.4397 173.992 37.5381 173.768 37.7071C173.302 38.0195 172.785 38.2481 172.241 38.3824C171.969 38.4468 171.686 38.4497 171.413 38.3909C171.14 38.3321 170.884 38.2131 170.663 38.0425C170.358 37.791 170.136 37.4136 169.798 37.2172C169.46 37.0208 169.107 37.0318 168.774 36.8972C168.566 36.8083 168.38 36.6737 168.231 36.5033C168.082 36.3329 167.974 36.1311 167.913 35.913C167.905 35.8854 167.9 35.8574 167.896 35.8291C167.84 36.0754 167.847 36.3316 167.913 36.575C167.974 36.7932 168.082 36.9949 168.231 37.1653C168.38 37.3357 168.566 37.4703 168.774 37.5593C169.107 37.6939 169.482 37.6961 169.798 37.8792C170.113 38.0624 170.358 38.453 170.663 38.7046C170.884 38.8751 171.14 38.9941 171.413 39.0529C171.686 39.1117 171.969 39.1088 172.241 39.0445C172.785 38.9101 173.302 38.6816 173.768 38.3692C173.992 38.2001 174.26 38.1017 174.54 38.0867C174.731 38.1148 174.913 38.1832 175.074 38.2875C175.466 38.4797 175.816 38.7466 176.105 39.0731C176.752 39.8808 176.668 41.1189 177.019 42.1318C177.083 42.315 177.189 42.5136 177.361 42.5334C177.467 42.534 177.569 42.4964 177.65 42.4275C177.923 42.2301 178.153 41.98 178.327 41.6919C178.502 41.4038 178.617 41.0836 178.665 40.7503C178.705 40.4943 178.709 40.2339 178.753 39.9779C178.809 39.7143 178.883 39.4547 178.974 39.2011C179.189 38.6068 179.289 37.9769 179.267 37.3452C179.263 37.3187 179.259 37.2878 179.254 37.2569Z" fill="black"/>
</g>
<path d="M165.292 54.9648L165.141 56.9797C165.119 57.2533 164.596 63.7679 160.739 71.3814C157.429 77.9114 150.987 86.4165 138.825 91.1965C137.876 91.5717 136.891 91.9218 135.87 92.247L134.731 88.6719C137.59 87.7722 140.344 86.5677 142.945 85.0792C149.144 81.4997 153.964 76.3909 157.325 69.8168C159.108 66.3166 160.379 62.5783 161.099 58.7164H147.262V54.9648H165.292Z" fill="#6C63FF"/>
<path opacity="0.1" d="M137.335 91.1992C149.495 86.4192 155.939 77.9163 159.247 71.3863C163.105 63.7728 163.63 57.2626 163.65 56.9846L163.8 54.9697H165.344L165.194 56.9846C165.175 57.2582 164.649 63.7728 160.792 71.3863C157.482 77.9163 151.04 86.4192 138.88 91.1992C137.931 91.5744 136.946 91.9253 135.923 92.2519L135.773 91.7818C136.306 91.592 136.826 91.3978 137.335 91.1992Z" fill="white"/>
<path d="M112.99 88.6719L111.851 92.247C110.828 91.9204 109.843 91.5695 108.894 91.1943C96.7341 86.4143 90.2902 77.9114 86.9821 71.3814C83.1246 63.7679 82.5994 57.2577 82.5795 56.9797L82.4294 54.9648H100.45V58.7164H86.6114C87.3348 62.5787 88.6094 66.317 90.3961 69.8168C93.7571 76.3909 98.5746 81.4997 104.774 85.077C107.375 86.5671 110.13 87.7724 112.99 88.6719Z" fill="#6C63FF"/>
<path opacity="0.1" d="M110.381 91.1992C98.2215 86.4192 91.7776 77.9163 88.4695 71.3863C84.612 63.7728 84.0868 57.2626 84.0669 56.9846L83.9169 54.9697H82.3721L82.5221 56.9846C82.542 57.2582 83.0672 63.7728 86.9248 71.3863C90.235 77.9163 96.6767 86.4192 108.836 91.1992C109.785 91.5744 110.771 91.9253 111.794 92.2519L111.944 91.7818C111.412 91.592 110.892 91.3978 110.381 91.1992Z" fill="white"/>
<path d="M144.677 123.231V143.461H103.041V123.231L104.365 121.466C117.858 116.677 120.592 104.188 121.137 99.2472C121.218 98.5644 121.265 97.8779 121.276 97.1904H126.425C126.436 97.8779 126.483 98.5644 126.564 99.2472C127.118 104.188 129.852 116.681 143.336 121.466L144.677 123.231Z" fill="#6C63FF"/>
<path opacity="0.1" d="M144.677 123.231H103.041V125.769H144.677V123.231Z" fill="black"/>
<path opacity="0.1" d="M106.572 121.466C120.065 116.677 122.799 104.188 123.344 99.2472C123.425 98.5644 123.472 97.8779 123.483 97.1904H121.276C121.265 97.8779 121.218 98.5644 121.137 99.2472C120.583 104.188 117.849 116.681 104.365 121.466L103.041 123.231V143.461H105.248V123.231L106.572 121.466Z" fill="white"/>
<path opacity="0.1" d="M96.7166 54.9648H100.45V58.7164H97.0476C96.9137 57.4806 96.8034 56.2301 96.7166 54.9648Z" fill="black"/>
<path opacity="0.1" d="M112.99 88.673L111.851 92.2481C110.828 91.9215 109.843 91.5706 108.894 91.1954C107.333 89.2892 105.953 87.2412 104.774 85.0781C107.375 86.5682 110.13 87.7735 112.99 88.673Z" fill="black"/>
<path opacity="0.1" d="M134.729 88.6728C137.588 87.7731 140.342 86.5686 142.943 85.0801C141.763 87.2434 140.383 89.2921 138.823 91.1996C137.874 91.5748 136.889 91.9249 135.868 92.2501L134.729 88.6728Z" fill="black"/>
<path opacity="0.1" d="M151 54.9648C150.913 56.2301 150.803 57.4806 150.669 58.7164H147.268V54.9648H151Z" fill="black"/>
<path opacity="0.1" d="M126.573 99.2472C124.781 99.5944 122.938 99.5944 121.146 99.2472C121.227 98.5644 121.274 97.8779 121.285 97.1904H126.434C126.445 97.8779 126.492 98.5644 126.573 99.2472Z" fill="black"/>
<path d="M97.1578 48.751C97.2527 76.5703 109.17 99.0667 123.86 99.0667C138.551 99.0667 150.466 76.5703 150.563 48.751H97.1578Z" fill="#6C63FF"/>
<path opacity="0.1" d="M101.903 48.751H97.1578C97.2527 76.5703 109.17 99.0667 123.86 99.0667C124.655 99.0652 125.449 98.9981 126.233 98.8658C112.652 96.5972 101.993 75.0564 101.903 48.751Z" fill="white"/>
<path d="M138.019 130.976H109.699V138.258H138.019V130.976Z" fill="#3F3D56"/>
<path opacity="0.1" d="M111.023 131.969H138.019V130.976H109.699V138.258H111.023V131.969Z" fill="white"/>
<path d="M82.0543 75.6096C81.5445 75.4397 78.5432 73.0651 78.3159 71.9904C78.0886 70.9157 79.9026 60.9033 79.9026 60.9033C79.9026 60.9033 79.7349 60.9033 79.4613 60.8702V60.7091L79.8342 47.5564C79.8342 47.5564 81.3636 38.7291 78.4748 39.2433C75.5861 39.7575 77.3979 47.5564 77.3979 47.5564C77.3979 47.5564 77.0691 51.5155 76.8374 52.7027C76.6167 53.8481 75.6059 58.5133 76.2945 59.9632C76.3197 60.0147 76.3477 60.0648 76.3783 60.1133C76.3783 60.1133 76.4931 65.0897 75.2462 65.7694C74.0568 66.416 73.5624 69.671 73.5205 69.9623L73.4565 69.9359C73.1013 69.7137 72.7895 69.4288 72.5362 69.0951C72.5098 69.062 72.4899 69.0267 72.4656 68.9913C73.2776 68.0779 73.7152 66.8919 73.691 65.67C73.6669 64.4481 73.1828 63.2802 72.3354 62.3995C71.9414 61.9903 71.4792 61.6528 70.9694 61.4021C70.9546 60.9804 70.8547 60.566 70.6759 60.1839C70.1021 58.9569 66.9243 57.3525 64.6667 57.315C63.6251 57.2841 62.771 57.5798 62.4599 58.3942C62.301 58.8068 62.3495 59.2769 62.2833 59.705C62.1509 60.5877 61.5837 61.2785 60.8555 61.828C60.5614 61.4997 60.2435 61.1936 59.9044 60.9121C59.1673 60.3472 57.6975 58.4846 57.6975 58.4846C57.6975 58.4846 53.1095 53.7333 52.7697 52.4313C52.4298 51.1293 47.8462 43.3105 46.8267 44.6721C45.8071 46.0337 50.3377 51.9679 50.3377 51.9679C50.3377 51.9679 51.1984 54.1239 51.8605 54.8522C52.5225 55.5804 57.5982 62.9513 57.5982 62.9513L57.841 63.4544C56.7684 64.0194 55.7886 64.7388 55.4421 65.8599C54.9346 67.5106 56.0446 69.1701 56.8126 70.7149C58.3088 73.7294 58.5229 77.5737 56.5919 80.3278C54.8617 82.7597 51.8605 83.9161 49.0512 84.9268C50.4079 85.9922 52.0934 86.5517 53.8179 86.5091C53.1691 88.3894 50.8696 89.0117 48.9099 89.3604C49.9383 90.349 51.4103 90.7087 52.8226 90.9272C53.5144 91.045 54.2153 91.1004 54.9169 91.0927H55.089L55.2612 91.0795C55.5004 91.0636 55.7384 91.0334 55.974 90.989C56.9935 90.7816 57.9844 90.2254 58.5052 89.3251C58.9466 88.5549 59.1011 87.5044 59.9021 87.1182C60.1107 87.0241 60.3355 86.9709 60.5642 86.9615H60.5399C60.69 86.9615 60.8445 86.9615 60.9945 86.9615L64.3335 86.9947C64.4725 86.9947 64.6159 86.9947 64.7594 86.9947C65.7017 86.9726 66.708 86.8093 67.1869 86.0303C67.3839 85.652 67.4875 85.232 67.4892 84.8055C67.5598 83.7484 67.4892 82.6604 67.5179 81.5945C67.8026 83.5343 68.1005 86.5577 67.3921 87.6744C66.8166 88.5205 66.1191 89.2768 65.3221 89.9187C65.1217 90.0871 64.9383 90.2748 64.7748 90.4792C64.6667 90.5565 64.6027 90.5984 64.6027 90.5984L64.5343 90.8036C64.2828 91.1851 64.1005 91.6079 63.9958 92.0527C63.9573 92.1669 63.943 92.2879 63.9539 92.408C64.0311 92.5647 63.4022 93.2113 63.5853 93.4827C62.0141 95.3254 61.7162 98.1171 61.7162 98.1171L58.8473 102.473C57.3731 106.346 55.1663 106.744 55.1663 106.744C55.1663 106.744 49.9824 103.266 49.8412 103.096C49.7 102.926 47.7182 102.076 47.7182 102.076C47.4846 101.666 47.1279 101.341 46.6987 101.145C46.019 100.862 45.9616 99.8207 45.9616 99.8207C45.8777 97.3601 44.4323 97.1725 44.4323 97.1725C43.2671 97.0732 42.3777 97.2807 41.6936 97.6603L41.4861 97.6757C40.4842 97.7574 39.2793 97.8478 37.9552 97.9361C34.272 98.1789 33.3959 100.564 33.3959 100.564C33.3959 100.564 32.9435 101.074 33.5371 101.626C34.1308 102.178 37.9309 101.626 38.092 101.613C37.8024 101.644 37.5095 101.624 37.227 101.553C37.825 101.531 38.6482 101.509 39.3499 101.509H39.5199C39.4757 101.881 39.4543 102.255 39.4559 102.63C39.4559 103.336 41.4089 103.789 41.4089 103.789L47.3563 109.085C47.3563 109.085 51.0947 110.756 53.4736 113.159C55.8526 115.562 57.9557 113.488 57.9557 113.488C60.4737 112.865 67.7187 104.106 67.7254 104.098C67.7254 104.354 67.8776 112.872 68.1667 114.582C68.1782 114.669 68.1997 114.754 68.2307 114.836C68.5706 115.571 68.116 117.579 67.9196 118.427C67.7943 119.136 67.7462 119.856 67.7761 120.576C67.7761 120.576 65.0595 130.948 65.2846 131.859C65.5097 132.771 63.8126 137.006 63.8126 137.006V140.537L64.1084 140.521C64.0699 140.578 64.0345 140.637 64.0024 140.698L63.9826 140.735C63.9826 140.735 65.7944 141.13 67.0126 141.018C68.2307 140.905 70.3228 141.956 70.3228 141.956C70.3228 141.956 71.0312 142.291 73.2115 142.432C75.3919 142.574 75.3919 141.47 75.3919 141.47C75.1425 139.967 71.6977 139.464 71.5917 139.449C71.3137 139.274 71.0533 139.085 70.8392 138.921L70.7951 138.886C70.8095 138.853 70.822 138.819 70.8326 138.785C71.2011 137.284 69.162 136.633 69.162 136.633V136.267C70.4861 135.587 70.7487 130.922 70.7487 130.922C70.7487 130.922 72.7349 125.153 73.0129 124.191C73.291 123.229 73.0129 121.788 73.0129 121.788L73.2115 120.543C73.2115 120.543 73.6375 119.695 73.6375 119.526C73.6926 119.095 73.8583 118.686 74.1185 118.338C74.4297 117.97 73.7787 117.094 73.7787 117.094L74.3458 115.624V114.011L75.6699 108.158C75.6699 108.158 77.058 101.341 76.577 99.1101C76.0959 96.879 77.1441 95.7447 77.1441 95.7447C77.0496 95.7944 76.9524 95.8386 76.8528 95.8771C76.9853 95.5708 77.0995 95.2569 77.1949 94.937L80.1741 95.3056V95.3497H81.2488C81.2488 95.3497 80.909 91.1567 80.909 89.4663C80.909 87.7759 82.0543 81.7093 82.0543 81.7093C82.0543 81.7093 82.5641 75.7795 82.0543 75.6096ZM68.8288 70.7149C68.8288 70.8804 68.8133 71.0525 68.8023 71.2291L68.7427 71.3196L68.6324 71.2269L68.4977 71.4365L68.458 71.4564C68.1667 71.3063 68.0167 70.4479 67.807 70.6332L67.7783 70.6575C67.732 70.6045 67.6856 70.5891 67.6371 70.6332L67.5929 70.6707C67.5929 70.6067 67.5929 70.5405 67.5929 70.4743C67.9967 70.5782 68.4119 70.6309 68.8288 70.631C68.831 70.6597 68.8288 70.6884 68.8288 70.7149ZM78.7374 90.2409H78.8014L78.6955 90.519C78.7088 90.4263 78.722 90.3358 78.7374 90.2409ZM67.86 140.285L67.4539 140.184L67.6746 140.146L67.8798 140.281L67.9041 140.298L67.86 140.285ZM72.0088 139.692C71.8742 139.621 71.7374 139.539 71.605 139.455C71.6491 139.48 71.8234 139.57 72.0088 139.692Z" fill="url(#paint1_linear_917_3080)"/>
<path d="M80.2028 86.0723L77.5303 93.037H78.1791L75.6655 95.0408L80.2028 95.6058V86.0723Z" fill="#F86D70"/>
<path opacity="0.1" d="M80.2028 86.0723L77.5303 93.037L76.8572 92.8561L75.6655 95.0408L80.2028 95.6058V86.0723Z" fill="black"/>
<path d="M76.012 90.5282H80.2027L81.7409 77.8721H76.012V90.5282Z" fill="#F86D70"/>
<path opacity="0.1" d="M76.012 90.5282H80.2027L81.7409 77.8721H76.012V90.5282Z" fill="black"/>
<path d="M67.8269 80.8696L68.7317 80.7173L70.8105 80.3642C70.8105 80.3642 77.0537 78.9563 78.3425 78.8415C79.1232 78.7384 79.8846 78.5213 80.6022 78.1971C80.9399 78.0515 81.1539 77.9411 81.1539 77.9411L78.9052 73.8342L75.4162 71.2478C75.4162 71.2478 73.2094 70.7778 72.2759 69.4934C72.0676 69.2171 71.9319 68.8928 71.8814 68.5504C71.8309 68.2081 71.8671 67.8585 71.9868 67.5337C72.5562 65.7683 68.5861 69.222 68.5861 69.222C68.5861 69.222 68.6236 70.0495 68.5861 71.1044C68.5861 71.3118 68.5662 71.5281 68.5508 71.7488C68.5508 71.8944 68.5309 72.0401 68.5155 72.1901C68.4184 73.2384 68.2197 74.3175 67.8269 74.9619C66.867 76.5376 67.8269 80.8696 67.8269 80.8696Z" fill="#FBBEBE"/>
<path opacity="0.1" d="M68.5861 71.1925H68.6743C68.8332 71.1925 68.9612 70.8549 69.1157 70.8394C70.3581 70.7203 71.4925 70.4598 72.2803 69.5793C72.0725 69.3031 71.9372 68.9793 71.8867 68.6374C71.8362 68.2955 71.8721 67.9463 71.9912 67.6219C72.5606 65.8564 68.5905 69.3079 68.5905 69.3079C68.5905 69.3079 68.6324 70.1377 68.5861 71.1925Z" fill="black"/>
<path d="M63.7531 66.1869C63.7528 66.8222 63.8777 67.4514 64.1207 68.0384C64.3637 68.6255 64.72 69.1588 65.1692 69.6081C65.6185 70.0573 66.1519 70.4136 66.7389 70.6566C67.3259 70.8996 67.9551 71.0246 68.5904 71.0243C68.7493 71.0243 68.906 71.0243 69.0627 71.0022C69.9948 70.9108 70.8803 70.5507 71.6117 69.9658C72.3431 69.3808 72.889 68.5961 73.1831 67.7069C73.4772 66.8178 73.5069 65.8623 73.2685 64.9566C73.0301 64.0509 72.5339 63.2339 71.8401 62.6047C71.1463 61.9755 70.2849 61.5613 69.3602 61.4122C68.4356 61.2632 67.4876 61.3858 66.6313 61.7651C65.775 62.1444 65.0472 62.7641 64.5362 63.5491C64.0253 64.334 63.7533 65.2504 63.7531 66.1869Z" fill="#FBBEBE"/>
<path d="M62.2679 58.8449C62.109 59.2554 62.1576 59.7144 62.0936 60.1491C61.8574 61.7182 60.2619 62.6583 58.8186 63.3159C57.3754 63.9735 55.7467 64.7526 55.2877 66.2686C54.7846 67.9083 55.8836 69.5524 56.6471 71.0906C58.1345 74.0874 58.3464 77.9097 56.4264 80.6505C54.7206 83.0781 51.748 84.23 48.9497 85.2407C50.2965 86.3002 51.9703 86.8574 53.6834 86.8164C53.0412 88.6856 50.7571 89.3057 48.8107 89.65C49.8324 90.6342 51.2956 90.9917 52.6969 91.208C53.7187 91.3669 54.7669 91.4706 55.7865 91.2654C56.806 91.0602 57.7726 90.5062 58.2978 89.6103C58.7392 88.8445 58.8893 87.8007 59.6859 87.4145C60.0455 87.2729 60.433 87.2163 60.818 87.249L64.1283 87.2843C65.1589 87.2843 66.3792 87.2048 66.9111 86.3243C67.1073 85.9481 67.2102 85.5304 67.2112 85.1061C67.3547 82.9346 66.9376 80.6395 67.8313 78.6578C68.1006 78.0597 66.3726 77.113 66.5536 76.4796C67.1759 74.3015 67.3326 72.5868 67.326 70.3204C67.326 68.566 68.4669 67.0543 69.4092 65.5735C70.3515 64.0927 71.1394 62.2235 70.3957 60.6346C69.5571 58.8625 63.2588 56.2872 62.2679 58.8449Z" fill="#3F3D56"/>
<path d="M66.6749 139.65L67.5179 140.209L67.6481 140.295L67.6724 140.31L68.6721 140.972L71.0069 141.365L73.0593 141.224C73.0593 141.224 73.6507 139.988 72.7216 140.017C72.4241 140.001 72.134 139.918 71.8742 139.772L71.7462 139.708C71.6116 139.637 71.477 139.558 71.3446 139.474C71.0687 139.299 70.8083 139.11 70.5987 138.949C70.2897 138.71 70.0845 138.529 70.0845 138.529L66.6749 139.65Z" fill="#FBBEBE"/>
<path opacity="0.1" d="M67.5289 140.208L67.6591 140.295L67.6834 140.31L68.6831 140.972L71.0179 141.365L73.0703 141.224C73.0703 141.224 73.6617 139.988 72.7326 140.016C72.435 140.001 72.145 139.917 71.8852 139.771C72.0485 139.899 72.1853 140.039 72.1986 140.155C72.2361 140.471 70.6803 141.038 70.6803 141.038L68.4867 140.458C68.4867 140.458 68.1137 140.352 67.604 140.219L67.5554 140.206L67.5289 140.208Z" fill="black"/>
<path d="M63.7773 140.747C63.7773 140.747 65.5759 141.14 66.7853 141.028C67.9946 140.915 70.0778 141.957 70.0778 141.957C70.0778 141.957 70.7818 142.288 72.9467 142.429C75.1116 142.57 75.1116 141.471 75.1116 141.471C74.8645 139.977 71.4439 139.485 71.3379 139.463C71.3799 139.485 71.5586 139.575 71.7396 139.697C71.9823 139.856 72.245 140.063 72.2648 140.231C72.3023 140.544 70.7465 141.114 70.7465 141.114L68.5529 140.535C68.5529 140.535 68.18 140.427 67.6702 140.295H67.6216C66.8658 140.089 66.0978 139.931 65.3221 139.82C64.3776 139.719 63.8943 140.522 63.795 140.703C63.7878 140.717 63.7819 140.732 63.7773 140.747Z" fill="#3F3D56"/>
<path d="M35.4285 101.062L36.384 101.795C36.384 101.795 36.6621 101.782 37.077 101.769H37.2094C37.803 101.747 38.6217 101.725 39.3169 101.725C39.7663 101.704 40.2165 101.729 40.6609 101.8C41.1375 101.967 41.985 99.0719 41.985 99.0719L41.0272 98.8512L40.7094 98.7762L40.4887 98.7232L39.7097 98.54L37.3484 98.8093L35.6889 99.8774L35.4285 101.062Z" fill="#FBBEBE"/>
<path opacity="0.1" d="M35.4285 101.062L36.384 101.795C36.384 101.795 36.6621 101.782 37.077 101.769C36.8866 101.695 36.7296 101.555 36.6356 101.374C36.0177 99.6589 39.083 98.9262 39.083 98.9262L40.5108 98.8644L40.7889 98.8512H41.0095L40.6918 98.7762L40.4711 98.7232L39.6921 98.54L37.3308 98.8093L35.6712 99.8774L35.4285 101.062Z" fill="black"/>
<path d="M33.5437 101.836C34.1219 102.37 37.9088 101.836 38.0677 101.823C37.7803 101.856 37.4894 101.835 37.2093 101.764C37.0706 101.739 36.9392 101.683 36.8246 101.601C36.7101 101.519 36.6153 101.413 36.5472 101.289C35.9293 99.5722 38.9946 98.8418 38.9946 98.8418L40.4224 98.78L40.6983 98.7667L44.1696 98.6167L44.3373 97.6611C44.3373 97.6611 43.2097 97.7671 41.4398 97.9083C40.4445 97.9899 39.2329 98.0804 37.9243 98.1665C34.2676 98.4092 33.3981 100.782 33.3981 100.782C33.3981 100.782 32.9545 101.289 33.5437 101.836Z" fill="#3F3D56"/>
<path d="M76.0143 60.4143C76.0378 60.4667 76.0658 60.5169 76.0981 60.5644L76.9411 61.8002L79.1347 62.0209L79.159 61.1514L79.5275 48.0693C79.5275 48.0693 81.0458 39.295 78.177 39.8003C75.3081 40.3057 77.1089 48.0693 77.1089 48.0693C77.1089 48.0693 76.7823 52.0063 76.5527 53.1892C76.3299 54.3323 75.3302 58.9799 76.0143 60.4143Z" fill="#FBBEBE"/>
<path d="M71.0908 92.9071L71.7153 93.9753L73.1123 96.3652C73.1123 96.3652 75.6457 97.2943 76.2945 96.5859C76.6498 96.1997 77.0338 94.8514 77.303 93.717C77.5237 92.799 77.6716 92.0244 77.6716 92.0244L71.0908 92.9071Z" fill="#FBBEBE"/>
<path opacity="0.1" d="M71.0908 92.9078L71.7153 93.976C71.7545 93.9423 71.79 93.9046 71.8213 93.8634C72.5275 92.963 75.6369 93.6714 77.303 93.7288C77.5237 92.8107 77.6716 92.0361 77.6716 92.0361L71.0908 92.9078Z" fill="black"/>
<path opacity="0.1" d="M39.3169 101.719C39.7663 101.699 40.2165 101.724 40.6609 101.795C41.1375 101.962 41.9849 99.0669 41.9849 99.0669L40.7094 98.7667L44.1807 98.6167L44.3485 97.6611C44.3485 97.6611 43.2208 97.7671 41.4509 97.9083C41.0852 98.1189 40.7589 98.3914 40.4865 98.7138L40.4335 98.78C39.6943 99.687 39.4206 100.857 39.3169 101.719Z" fill="black"/>
<path opacity="0.1" d="M66.6749 139.65L67.6481 140.295C69.1002 140.032 70.4266 139.619 70.5832 138.971C70.584 138.96 70.584 138.95 70.5832 138.94C70.2743 138.701 70.069 138.521 70.069 138.521L66.6749 139.65Z" fill="black"/>
<path opacity="0.1" d="M63.7972 140.71C65.0796 140.646 66.3572 140.509 67.6239 140.299C66.8674 140.092 66.0986 139.932 65.3222 139.82C64.3798 139.719 63.8965 140.522 63.7972 140.71Z" fill="black"/>
<path d="M39.4227 102.834C39.4227 103.538 41.3625 103.988 41.3625 103.988L47.2702 109.247C47.2702 109.247 50.9821 110.907 53.3434 113.297C55.7047 115.687 57.788 113.634 57.788 113.634C60.2905 113.016 67.498 104.297 67.498 104.297C67.498 104.297 67.6657 114.254 68.0034 114.985C68.341 115.715 67.8908 117.713 67.6944 118.558C67.5705 119.263 67.5231 119.979 67.5532 120.694C67.5532 120.694 64.8542 131.015 65.0793 131.916C65.3044 132.816 63.6162 137.036 63.6162 137.036V140.551C63.6162 140.551 70.2256 140.297 70.5898 138.808C70.9539 137.318 68.9324 136.669 68.9324 136.669V136.303C70.2565 135.628 70.5059 130.989 70.5059 130.989C70.5059 130.989 72.4766 125.251 72.7569 124.296C73.0372 123.34 72.7569 121.903 72.7569 121.903L72.9533 120.668C72.9533 120.668 73.3748 119.822 73.3748 119.655C73.4299 119.226 73.5949 118.82 73.8537 118.474C74.1626 118.108 73.516 117.236 73.516 117.236L74.0788 115.773V114.171L75.4029 108.349C75.4029 108.349 76.7821 101.57 76.3033 99.3473C75.8244 97.125 76.866 96.0018 76.866 96.0018C74.6084 97.1846 73.4697 94.5519 73.0967 93.4198C73.0018 93.1285 72.9555 92.9343 72.9555 92.9343C72.9555 92.9343 69.8549 91.7911 66.9684 92.0648C66.3821 92.1123 65.8044 92.2347 65.2493 92.4289C62.0427 93.5831 61.5374 98.3631 61.5374 98.3631L58.6972 102.695C57.2341 106.548 55.0405 106.941 55.0405 106.941C55.0405 106.941 49.8941 103.483 49.7441 103.313C49.594 103.143 47.6343 102.3 47.6343 102.3C47.4026 101.892 47.0482 101.568 46.6214 101.373C45.9461 101.091 45.8909 100.049 45.8909 100.049C45.8071 97.6017 44.3727 97.4009 44.3727 97.4009C39.394 96.986 39.4227 102.132 39.4227 102.834Z" fill="#3F3D56"/>
<path d="M68.0541 89.083H71.0907V79.662H68.0541V89.083Z" fill="#F86D70"/>
<path opacity="0.1" d="M68.0541 89.083H71.0907V79.662H68.0541V89.083Z" fill="black"/>
<path opacity="0.1" d="M76.012 60.3945C76.0115 60.4011 76.0115 60.4078 76.012 60.4144C76.0355 60.4668 76.0635 60.517 76.0958 60.5645L76.9388 61.8003L79.1325 62.021L79.1567 61.1515C78.4726 61.0985 76.9146 60.9109 76.012 60.3945Z" fill="black"/>
<path d="M76.098 60.5635C76.098 60.5635 76.2106 65.5112 74.9725 66.1865C73.7345 66.8618 73.2534 70.3795 73.2534 70.3795C73.2534 70.3795 77.005 72.8467 77.8414 73.9324C78.6778 75.0182 80.5977 77.6046 80.2027 78.2225C79.8077 78.8404 81.1605 81.6541 81.1605 81.6541C81.1605 81.6541 78.6844 86.7166 79.2472 88.6299C79.8099 90.5432 79.8651 95.6035 79.8651 95.6035H80.9354C80.9354 95.6035 80.5977 91.4414 80.5977 89.7532C80.5977 88.065 81.721 82.047 81.721 82.047C81.721 82.047 82.2286 76.1415 81.721 75.9738C81.2135 75.806 78.2342 73.4425 78.0091 72.3722C77.784 71.3019 79.5848 61.3381 79.5848 61.3381C79.5848 61.3381 77.2787 61.2388 76.098 60.5635Z" fill="#F86D70"/>
<path opacity="0.1" d="M67.9968 78.7879C68.0995 79.4764 68.3502 80.1344 68.7317 80.7167L70.8105 80.3636C70.8105 80.3636 77.0537 78.9556 78.3424 78.8408C79.1232 78.7378 79.8846 78.5206 80.6022 78.1964C80.1076 76.4437 79.1421 74.8599 77.8106 73.6173L77.0183 72.8824C75.8509 71.7985 74.4979 70.9336 73.024 70.3291C73.1167 70.4063 79.6665 75.9984 78.2321 77.0952C76.7977 78.192 72.9357 75.5218 72.9357 75.5218L68.5441 71.7481L68.3852 71.6113L68.1314 72.0063C68.2606 72.0594 68.3866 72.1198 68.5088 72.1873C70.0055 73.0088 71.1163 74.3893 71.5984 76.0271C72.501 79.0615 67.9968 78.7879 67.9968 78.7879Z" fill="black"/>
<path d="M66.6462 92.8502C66.6462 92.8502 70.8083 95.1563 71.819 93.8631C72.0397 93.5784 72.5054 93.4548 73.0858 93.4217C72.9909 93.1304 72.9445 92.9362 72.9445 92.9362C72.9445 92.9362 69.8439 91.7931 66.9574 92.0667C66.7676 92.5434 66.6462 92.8502 66.6462 92.8502Z" fill="#444053"/>
<path d="M68.5618 71.6159L73.1122 75.5308C73.1122 75.5308 76.9588 78.2099 78.4086 77.1043C79.8585 75.9987 73.1983 70.3359 73.1983 70.3359C74.6691 70.9423 76.0207 71.8045 77.1905 72.8826L77.9827 73.6175C80.066 75.5485 80.536 75.5485 80.6066 78.3865C80.6243 79.086 80.386 80.0901 80.2028 80.2711C79.5275 80.9331 79.0552 85.7418 79.159 86.3046C79.2627 86.8673 77.9011 91.7245 78.3424 93.0751C78.7838 94.4257 72.8254 92.3998 71.8168 93.6952C70.8083 94.9906 66.6462 92.6823 66.6462 92.6823C66.6462 92.6823 68.9524 86.7746 69.5151 86.3818C70.0779 85.989 70.7532 82.9502 69.5151 81.5444C68.2771 80.1387 68.1667 78.7881 68.1667 78.7881C68.1667 78.7881 72.6687 79.0662 71.7661 76.0318C71.5122 75.1522 71.0716 74.3378 70.4745 73.6439C69.8773 72.9501 69.1376 72.3931 68.3058 72.0109L68.5618 71.6159Z" fill="#E8E8F0"/>
<path opacity="0.1" d="M74.635 81.5732C74.635 81.5732 72.8894 84.8636 70.6318 85.7177C70.5589 85.7441 70.4883 85.7684 70.4111 85.7905C68.0542 86.5077 74.8115 82.5928 74.635 81.5732Z" fill="black"/>
<path d="M50.2231 52.4627C50.2231 52.4627 51.0661 54.6011 51.7413 55.3315C52.4166 56.062 57.4217 63.3754 57.4217 63.3754L57.8454 64.2582L58.2096 65.0107L61.4161 64.673L61.6368 63.3798L61.5132 63.2298C61.191 62.8436 60.3127 61.8064 59.7235 61.354C58.993 60.7934 57.5299 58.9375 57.5299 58.9375C57.5299 58.9375 52.975 54.2105 52.6373 52.9173C52.2997 51.6241 47.7426 43.8693 46.7318 45.211C45.7211 46.5528 50.2231 52.4627 50.2231 52.4627Z" fill="#FBBEBE"/>
<g opacity="0.1">
<path opacity="0.1" d="M59.527 87.2496C59.1421 87.2163 58.7547 87.2722 58.3949 87.4129C57.6004 87.7991 57.4504 88.8429 57.009 89.6087C56.4926 90.5047 55.5084 91.0586 54.4954 91.2638C54.2941 91.3029 54.0908 91.3309 53.8864 91.3477C54.5315 91.4105 55.1823 91.3822 55.8195 91.2638C56.8325 91.0586 57.8167 90.5047 58.3331 89.6087C58.7745 88.8429 58.9245 87.7991 59.719 87.4129C59.9276 87.319 60.1524 87.2665 60.381 87.2584L59.527 87.2496Z" fill="black"/>
<path opacity="0.1" d="M67.3656 70.3205C67.3656 68.5661 68.5065 67.0544 69.4466 65.5736C70.3867 64.0928 71.1768 62.2237 70.4331 60.6347C69.7975 59.2775 65.9665 57.4569 63.7552 57.8166C65.9201 58.0969 68.5882 59.5225 69.109 60.6347C69.8527 62.2237 69.0626 64.0928 68.1225 65.5736C67.1824 67.0544 66.0371 68.5661 66.0415 70.3205C66.0415 72.5847 65.8892 74.2928 65.2669 76.4798C65.0881 77.1087 66.8117 78.0599 66.5468 78.6557C65.6509 80.6418 66.0702 82.9325 65.9267 85.1041C65.9237 85.5283 65.8201 85.9458 65.6244 86.3222C65.183 87.0483 64.2782 87.2358 63.3977 87.2756H64.1679C65.1963 87.2756 66.4166 87.1961 66.9485 86.3156C67.1442 85.9392 67.2478 85.5217 67.2508 85.0974C67.3943 82.9259 66.975 80.633 67.8709 78.6491C68.1402 78.0532 66.4122 77.1043 66.591 76.4731C67.2133 74.3016 67.37 72.5847 67.3656 70.3205Z" fill="black"/>
</g>
<path opacity="0.1" d="M57.8453 64.254L58.2095 65.0065L61.416 64.6689L61.6367 63.3757L61.5131 63.2256C61.171 63.3933 58.6089 64.6269 57.8453 64.254Z" fill="black"/>
<path opacity="0.1" d="M69.685 72.7131C69.685 72.7131 68.8972 71.4772 68.447 71.8127C67.9968 72.1481 67.8224 70.7997 67.5642 71.0248C67.3061 71.2499 66.5535 71.8767 66.2402 71.0006C65.9952 70.3032 63.3294 65.8918 62.248 64.1175C61.97 63.6584 61.7956 63.376 61.7956 63.376C61.7956 63.376 58.759 64.8943 58.0286 64.3889V65.457L58.6465 65.5144L61.9567 71.6935C61.9567 71.6935 62.9983 73.3508 62.9277 73.929C62.8571 74.5072 64.2628 77.0385 64.4879 77.2062C64.713 77.3739 67.1361 80.1876 67.1361 80.1876C67.1361 80.1876 68.3742 86.263 67.3038 87.9512C66.2335 89.6395 64.3798 90.8753 64.3798 90.8753C64.3798 90.8753 63.8215 92.5061 63.9031 92.676C63.9848 92.846 63.2543 93.5764 63.592 93.8015C63.9296 94.0266 64.3798 95.6001 64.3798 95.6001C64.3798 95.6001 65.9555 93.0689 66.8073 92.676C67.6591 92.2832 68.7493 87.106 68.7493 87.106C68.7493 87.106 69.0605 84.0562 69.0847 82.0877C69.109 80.1192 69.0097 72.7131 69.685 72.7131Z" fill="black"/>
<path d="M69.5151 72.7131C69.5151 72.7131 68.7295 71.4772 68.2793 71.8127C67.8291 72.1481 67.6525 70.7997 67.3966 71.0248C67.1406 71.2499 66.388 71.8767 66.0725 71.0006C65.8253 70.3032 63.1594 65.8918 62.0803 64.1175L61.6279 63.376C61.6279 63.376 58.5913 64.8943 57.8586 64.3889V65.457L58.4788 65.5144L61.789 71.6935C61.789 71.6935 62.8328 73.3508 62.76 73.929C62.6872 74.5072 64.0841 77.0384 64.3202 77.2062C64.5564 77.3739 66.9684 80.1876 66.9684 80.1876C66.9684 80.1876 68.2065 86.263 67.1384 87.9512C66.5741 88.7992 65.8877 89.5592 65.1015 90.2066C64.441 90.7514 63.9761 91.4968 63.7774 92.3296C63.739 92.4431 63.7255 92.5635 63.7376 92.6827C63.8193 92.8504 63.0888 93.583 63.4265 93.8081C63.7641 94.0332 64.2187 95.6133 64.2187 95.6133C64.2187 95.6133 65.7944 93.0821 66.6462 92.6893C67.4981 92.2965 68.5905 87.1192 68.5905 87.1192C68.5905 87.1192 68.8994 84.0694 68.9259 82.1009C68.9524 80.1324 68.8531 72.7131 69.5151 72.7131Z" fill="#F86D70"/>
<path opacity="0.1" d="M61.8089 98.3076C61.8089 98.3076 64.1724 98.749 65.1191 99.4309C66.0659 100.113 61.5198 98.3628 61.5198 98.3628L61.8089 98.3076Z" fill="black"/>
<path opacity="0.1" d="M67.4915 104.297C67.4915 104.297 69.9565 106.351 69.5151 108.207C69.0738 110.063 67.935 114.733 67.935 114.733L67.4915 104.297Z" fill="black"/>
<path opacity="0.1" d="M45.9329 100.347C45.9329 100.347 42.4593 100.726 42.6844 101.176C42.9095 101.627 45.9329 100.762 45.9329 100.762V100.347Z" fill="black"/>
<path opacity="0.1" d="M72.6046 117.431C72.6046 117.431 72.8252 117.712 71.5365 117.431C70.2477 117.151 71.1988 116.286 71.1988 116.286L72.6046 117.431Z" fill="black"/>
<path opacity="0.1" d="M72.1634 121.314C72.1634 121.314 70.3979 121.594 69.4511 121.314C68.5044 121.034 72.1634 121.314 72.1634 121.314Z" fill="black"/>
<path opacity="0.1" d="M68.5309 136.501C68.5309 136.501 68.2219 136.164 66.675 136.782C65.128 137.399 64.5101 137.428 64.0599 137.223C63.6097 137.018 68.5309 136.501 68.5309 136.501Z" fill="black"/>
<path opacity="0.1" d="M70.2478 99.8682L68.0542 102.92C68.0542 102.92 69.2349 100.248 70.2478 99.8682Z" fill="black"/>
<path opacity="0.1" d="M65.9842 71.8125C65.9842 71.8125 65.8893 72.8254 64.4747 73.2205C63.0601 73.6155 62.7909 73.9355 62.7909 73.9355" fill="black"/>
<path opacity="0.1" d="M62.3076 64.4707C62.3076 64.4707 60.4406 65.7948 58.4919 65.5145L62.3076 64.4707Z" fill="black"/>
<path opacity="0.1" d="M63.7288 92.8211C63.7288 92.8211 64.2738 93.1632 65.5825 91.667L63.7288 92.8211Z" fill="black"/>
<path opacity="0.1" d="M77.3207 76.9563C77.3736 76.6827 77.1838 76.4289 77.0051 76.2148L76.6388 75.7734C76.5672 75.6831 76.4866 75.6003 76.3982 75.5263C76.1775 75.3563 75.895 75.3056 75.6655 75.1533" fill="black"/>
<path opacity="0.1" d="M195.81 0.024194C195.81 0.024194 177.23 -1.09687 179.415 11.9234C179.415 11.9234 178.974 14.2251 181.066 15.269C181.066 15.269 181.099 14.3046 182.973 14.6334C183.64 14.744 184.317 14.7766 184.992 14.7305C185.903 14.6676 186.769 14.3097 187.459 13.7109C187.459 13.7109 192.683 11.5527 194.713 3.01666C194.713 3.01666 196.216 1.15409 196.156 0.67521L193.02 2.01475C193.02 2.01475 194.093 4.27675 193.241 6.15697C193.241 6.15697 193.139 2.09641 192.537 2.18468C192.416 2.20454 190.908 2.9681 190.908 2.9681C190.908 2.9681 192.751 6.9073 191.361 9.77176C191.361 9.77176 191.888 4.91673 190.332 3.25278L188.126 4.54157C188.126 4.54157 190.279 8.61097 188.819 11.9322C188.819 11.9322 189.194 6.83888 187.66 4.85494L185.661 6.41517C185.661 6.41517 187.684 10.4272 186.451 13.1813C186.451 13.1813 186.289 7.25156 185.228 6.80357C185.228 6.80357 183.478 8.34835 183.211 8.9795C183.211 8.9795 184.597 11.8925 183.736 13.4285C183.736 13.4285 183.209 9.47825 182.776 9.45618C182.776 9.45618 181.033 12.0735 180.852 13.8698C180.852 13.8698 180.927 11.2018 182.355 9.20902C182.355 9.20902 180.669 9.49811 179.684 10.5905C179.684 10.5905 179.956 8.74117 182.785 8.58007C182.785 8.58007 184.226 6.59393 184.61 6.47255C184.61 6.47255 181.799 6.23862 180.093 6.99336C180.093 6.99336 181.593 5.24776 185.126 6.04222L187.102 4.42902C187.102 4.42902 183.399 3.92366 181.827 4.48199C181.827 4.48199 183.635 2.93721 187.633 4.06269L189.783 2.77832C189.783 2.77832 186.625 2.09861 184.745 2.33695C184.745 2.33695 186.731 1.26664 190.414 2.42743L191.959 1.73669C191.959 1.73669 189.646 1.28209 188.969 1.20926C188.291 1.13644 188.256 0.951063 188.256 0.951063C189.721 0.706735 191.225 0.874048 192.601 1.43436C192.601 1.43436 195.867 0.229429 195.81 0.024194Z" fill="#6C63FF"/>
<path opacity="0.1" d="M172.894 3.33619C172.894 3.33619 164.508 2.82862 165.49 8.71202C165.49 8.71202 165.294 9.75364 166.234 10.2259C166.234 10.2259 166.249 9.78454 167.097 9.93681C167.398 9.98747 167.704 10.0023 168.008 9.98095C168.42 9.95295 168.811 9.79097 169.123 9.51972C169.123 9.51972 171.484 8.54651 172.402 4.68897C172.402 4.68897 173.079 3.84596 173.053 3.62969L171.636 4.23436C171.636 4.23436 172.122 5.25833 171.74 6.10796C171.74 6.10796 171.694 4.27188 171.422 4.31602C171.367 4.31602 170.685 4.66911 170.685 4.66911C170.685 4.66911 171.519 6.45002 170.89 7.74543C170.89 7.74543 171.129 5.55184 170.425 4.79931L169.427 5.38192C169.427 5.38192 170.403 7.2202 169.74 8.72085C169.74 8.72085 169.91 6.41913 169.217 5.52315L168.315 6.23596C168.315 6.23596 169.229 8.04997 168.672 9.29242C168.672 9.29242 168.6 6.61333 168.118 6.41251C168.118 6.41251 167.328 7.10986 167.207 7.39675C167.207 7.39675 167.834 8.72085 167.445 9.40497C167.445 9.40497 167.207 7.61964 167.004 7.61302C167.004 7.61302 166.218 8.79588 166.135 9.59917C166.174 8.84949 166.408 8.12305 166.814 7.49165C166.36 7.57776 165.94 7.79483 165.607 8.11618C165.607 8.11618 165.731 7.28199 167.008 7.20696C167.008 7.20696 167.67 6.31099 167.834 6.25582C167.834 6.25582 166.563 6.14989 165.792 6.49195C165.792 6.49195 166.47 5.70191 168.068 6.05059L168.95 5.32233C168.95 5.32233 167.278 5.10165 166.567 5.34661C166.567 5.34661 167.384 4.64925 169.191 5.15682L170.162 4.57642C170.162 4.57642 168.736 4.26747 167.885 4.38002C167.885 4.38002 168.783 3.89451 170.447 4.41974L171.142 4.10858C171.142 4.10858 170.096 3.90113 169.789 3.87024C169.482 3.83934 169.467 3.75328 169.467 3.75328C170.129 3.64307 170.809 3.71948 171.431 3.97396C171.431 3.97396 172.921 3.42887 172.894 3.33619Z" fill="#6C63FF"/>
<path d="M202.187 143.612C207.088 143.612 211.061 142.94 211.061 142.111C211.061 141.282 207.088 140.61 202.187 140.61C197.287 140.61 193.314 141.282 193.314 142.111C193.314 142.94 197.287 143.612 202.187 143.612Z" fill="#6C63FF"/>
<path d="M205.857 139.656C206.263 139.326 206.557 138.881 206.703 138.379C206.813 137.873 206.597 137.275 206.111 137.079C205.568 136.871 204.988 137.249 204.549 137.628C204.11 138.008 203.604 138.443 203.031 138.361C203.326 138.092 203.547 137.752 203.673 137.373C203.798 136.993 203.823 136.588 203.746 136.196C203.72 136.034 203.652 135.881 203.547 135.755C203.245 135.433 202.7 135.569 202.338 135.823C201.19 136.631 200.87 138.191 200.863 139.592C200.749 139.087 200.846 138.56 200.844 138.048C200.841 137.536 200.698 136.944 200.259 136.673C199.988 136.527 199.683 136.456 199.376 136.465C198.862 136.446 198.286 136.499 197.935 136.876C197.494 137.344 197.611 138.129 197.99 138.641C198.37 139.153 198.95 139.482 199.484 139.837C199.911 140.092 200.276 140.44 200.55 140.855C200.583 140.913 200.61 140.974 200.63 141.038H203.865C204.588 140.67 205.259 140.205 205.857 139.656Z" fill="#6C63FF"/>
</g>
<defs>
<linearGradient id="paint0_linear_917_3080" x1="178.424" y1="111.43" x2="178.424" y2="22.649" gradientUnits="userSpaceOnUse">
<stop stop-color="#808080" stop-opacity="0.25"/>
<stop offset="0.54" stop-color="#808080" stop-opacity="0.12"/>
<stop offset="1" stop-color="#808080" stop-opacity="0.1"/>
</linearGradient>
<linearGradient id="paint1_linear_917_3080" x1="8794.53" y1="55299.8" x2="19694.4" y2="55299.8" gradientUnits="userSpaceOnUse">
<stop stop-color="#808080" stop-opacity="0.25"/>
<stop offset="0.54" stop-color="#808080" stop-opacity="0.12"/>
<stop offset="1" stop-color="#808080" stop-opacity="0.1"/>
</linearGradient>
<clipPath id="clip0_917_3080">
<rect width="252.461" height="144" fill="white"/>
</clipPath>
</defs>
</svg>
